<svg width="53" height="53" viewBox="0 0 53 53" fill="none" xmlns="http://www.w3.org/2000/svg">
<path fill-rule="evenodd" clip-rule="evenodd" d="M26.25 52.5C40.7473 52.5 52.5 40.7473 52.5 26.25C52.5 11.7525 40.7473 0 26.25 0C11.7525 0 0 11.7525 0 26.25C0 40.7473 11.7525 52.5 26.25 52.5ZM28.2188 18.375C28.2188 17.2877 27.3373 16.4062 26.25 16.4062C25.1627 16.4062 24.2812 17.2877 24.2812 18.375V24.2812H18.375C17.2877 24.2812 16.4062 25.1627 16.4062 26.25C16.4062 27.3373 17.2877 28.2188 18.375 28.2188H24.2812V34.125C24.2812 35.2123 25.1627 36.0938 26.25 36.0938C27.3373 36.0938 28.2188 35.2123 28.2188 34.125V28.2188H34.125C35.2123 28.2188 36.0938 27.3373 36.0938 26.25C36.0938 25.1627 35.2123 24.2812 34.125 24.2812H28.2188V18.375Z" fill="#656566" fill-opacity="0.690196"/>
</svg>
