<svg width="54" height="54" viewBox="0 0 54 54" fill="none" xmlns="http://www.w3.org/2000/svg">
<path d="M27 0.75C33.9619 0.75 40.6387 3.51562 45.5616 8.43845C50.4844 13.3613 53.25 20.0381 53.25 27C53.25 33.9619 50.4844 40.6387 45.5616 45.5616C40.6387 50.4844 33.9619 53.25 27 53.25C20.0381 53.25 13.3613 50.4844 8.43845 45.5616C3.51562 40.6387 0.75 33.9619 0.75 27C0.75 20.0381 3.51562 13.3613 8.43845 8.43845C13.3613 3.51562 20.0381 0.75 27 0.75ZM13.875 27C13.875 27.5967 14.1121 28.169 14.534 28.591C14.956 29.0129 15.5283 29.25 16.125 29.25H37.875C38.4717 29.25 39.044 29.0129 39.466 28.591C39.8879 28.169 40.125 27.5967 40.125 27C40.125 26.4033 39.8879 25.831 39.466 25.409C39.044 24.9871 38.4717 24.75 37.875 24.75H16.125C15.8295 24.75 15.5369 24.8082 15.264 24.9213C14.991 25.0343 14.7429 25.2001 14.534 25.409C14.3251 25.6179 14.1593 25.866 14.0463 26.139C13.9332 26.4119 13.875 26.7045 13.875 27Z" fill="#656566" fill-opacity="0.690196"/>
</svg>
