<svg width="96" height="58" viewBox="0 0 96 58" fill="none" xmlns="http://www.w3.org/2000/svg">
<path opacity="0.63" d="M0 6C0 2.68629 2.68629 0 6 0H96V58H0V6Z" fill="url(#paint0_linear_43_26)" fill-opacity="0.34"/>
<mask id="mask0_43_26" style="mask-type:alpha" maskUnits="userSpaceOnUse" x="0" y="0" width="88" height="58">
<path d="M0 0H88V58H0V0Z" fill="url(#paint1_linear_43_26)"/>
</mask>
<g mask="url(#mask0_43_26)">
<g clip-path="url(#clip0_43_26)">
<path d="M50.5373 -1.97852L37.5586 59.979H57.0266V-1.97852H50.5373Z" fill="#A991DD"/>
<path d="M44.0479 -1.97852L31.0691 59.9789H50.5373V-1.97852H44.0479Z" fill="#8672AF"/>
<path d="M44.0479 -1.97852V46.362L35.0831 53.1705L40.1543 -1.97852H44.0479Z" fill="#EEEEEE"/>
<path d="M40.1543 -1.97852V46.362L31.0691 59.979H-2.02663V-1.97852H40.1543Z" fill="white"/>
<path d="M44.0479 46.3618L31.0691 59.9788V46.3618H44.0479Z" fill="#424A4F"/>
<path d="M57.0266 -3H43.1975C42.6598 -3 42.2241 -2.46051 42.2241 -1.89652C42.2241 -1.33252 42.6598 -0.957501 43.1975 -0.957501H56.0533V58.9575H48.7917C48.2541 58.9575 50.6379 59.4147 50.6379 59.9787C50.6379 60.5427 48.2541 61 48.7917 61H57.0266C57.5643 61 58 60.5427 58 59.9787V-1.97875C58 -2.54275 57.5643 -3 57.0266 -3Z" fill="#424A4F"/>
<path d="M44.7382 47.0816C44.916 46.8893 45.0205 46.6398 45.0213 46.3648V-1.97875C45.0213 -2.54275 44.5856 -3 44.0479 -3H-2.02662C-2.5643 -3 -3 -2.54275 -3 -1.97875V59.9787C-3 60.3656 -2.79174 60.7192 -2.46196 60.8921C-2.25644 61 -2.25644 61 -0.771832 61H30.7335C31.2712 61 31.7069 60.5427 31.7069 59.9787C31.7069 59.4147 31.2712 58.9575 30.7335 58.9575C30.474 58.9575 3.98831 58.9575 -1.05324 58.9575V-0.957501H43.0744V45.3403H31.0691C30.5314 45.3403 30.0957 45.7976 30.0957 46.3616V59.9787C30.0957 60.3918 30.3328 60.7641 30.6967 60.9222C30.8171 60.9745 30.9435 61 31.0689 61C31.3221 61 31.5712 60.8962 31.7575 60.7008C31.7575 60.7008 44.7363 47.0838 44.7382 47.0816ZM32.0426 57.5132V47.383H41.698L32.0426 57.5132Z" fill="#424A4F"/>
<path d="M50.5373 -3H47.9415C47.4039 -3 46.9682 -2.54275 46.9682 -1.97875C46.9682 -1.41475 47.4039 -0.957501 47.9415 -0.957501H49.5639V58.9575H31.1027C30.565 58.9575 30.1293 59.4147 30.1293 59.9787C30.1293 60.5427 30.565 61 31.1027 61H50.5373C51.0749 61 51.5106 60.5427 51.5106 59.9787V-1.97875C51.5106 -2.54275 51.0749 -3 50.5373 -3Z" fill="#424A4F"/>
<path d="M8.29143 24.5747H33.7297C34.2674 24.5747 34.7031 24.1175 34.7031 23.5535C34.7031 22.9895 34.2674 22.5322 33.7297 22.5322H8.29143C7.75375 22.5322 7.31805 22.9895 7.31805 23.5535C7.31805 24.1175 7.75375 24.5747 8.29143 24.5747Z" fill="#424A4F"/>
<path d="M8.29143 19.1275H33.7297C34.2674 19.1275 34.7031 18.6702 34.7031 18.1062C34.7031 17.5422 34.2674 17.085 33.7297 17.085H8.29143C7.75375 17.085 7.31805 17.5422 7.31805 18.1062C7.31805 18.6702 7.75375 19.1275 8.29143 19.1275Z" fill="#424A4F"/>
<path d="M8.29143 13.6807H33.7297C34.2674 13.6807 34.7031 13.2234 34.7031 12.6594C34.7031 12.0954 34.2674 11.6382 33.7297 11.6382H8.29143C7.75375 11.6382 7.31805 12.0954 7.31805 12.6594C7.31805 13.2234 7.75375 13.6807 8.29143 13.6807Z" fill="#424A4F"/>
<path d="M34.7032 28.9998C34.7032 28.4358 34.2675 27.9785 33.7299 27.9785H8.29143C7.75375 27.9785 7.31805 28.4358 7.31805 28.9998C7.31805 29.5638 7.75375 30.021 8.29143 30.021H33.7297C34.2675 30.021 34.7032 29.5638 34.7032 28.9998Z" fill="#424A4F"/>
<path d="M8.29143 33.4253C7.75375 33.4253 7.31805 33.8825 7.31805 34.4465C7.31805 35.0105 7.75375 35.4678 8.29143 35.4678H23.9957C24.5334 35.4678 24.9691 35.0105 24.9691 34.4465C24.9691 33.8825 24.5334 33.4253 23.9957 33.4253H8.29143Z" fill="#424A4F"/>
</g>
</g>
<defs>
<linearGradient id="paint0_linear_43_26" x1="119" y1="29" x2="0" y2="29" gradientUnits="userSpaceOnUse">
<stop stop-color="#0DEEC7"/>
<stop offset="1" stop-color="#0B8AEF"/>
</linearGradient>
<linearGradient id="paint1_linear_43_26" x1="109.083" y1="29" x2="0" y2="29" gradientUnits="userSpaceOnUse">
<stop stop-color="#0DEEC7"/>
<stop offset="1" stop-color="#0B8AEF"/>
</linearGradient>
<clipPath id="clip0_43_26">
<rect width="61" height="64" fill="white" transform="translate(-3 -3)"/>
</clipPath>
</defs>
</svg>
