<svg width="402" height="402" viewBox="0 0 402 402" fill="none" xmlns="http://www.w3.org/2000/svg">
<g filter="url(#filter0_b_124_33)">
<path d="M201 309C301.516 309 383 287.516 383 187C383 86.4841 301.516 5 201 5C100.484 5 19 86.4841 19 187C19 287.516 100.484 309 201 309Z" fill="url(#paint0_radial_124_33)" fill-opacity="0.14"/>
</g>
<path d="M96.8849 230.248L25.959 230.25C24.974 230.25 24.1759 229.452 24.1759 228.467L24.174 133.436C24.174 132.451 24.972 131.653 25.957 131.653L96.8829 131.651C97.8679 131.651 98.6659 132.449 98.6659 133.434L98.6689 228.465C98.6679 229.449 97.8699 230.248 96.8849 230.248Z" fill="#8B69D2"/>
<path d="M38.417 131.653H24V230.259H38.417V131.653Z" fill="#633CB4"/>
<path d="M88.353 154.259H48.158V157.878H88.353V154.259Z" fill="#DAE9FE"/>
<path d="M82.209 147.724H54.302V151.343H82.209V147.724Z" fill="#DAE9FE"/>
<path d="M70.347 234.878L64.961 232.304L59.574 234.878V221.832H70.347V234.878Z" fill="#D279A9"/>
<path d="M122.338 221.821L48.372 221.823C47.345 221.823 46.512 220.991 46.512 219.964L46.509 120.861C46.509 119.834 47.341 119.002 48.368 119.002L122.334 119C123.361 119 124.193 119.832 124.193 120.859L124.196 219.962C124.197 220.988 123.364 221.821 122.338 221.821Z" fill="#B89FEB"/>
<path d="M61.363 119.001H46.329V221.832H61.363V119.001Z" fill="#6A40C4"/>
<path d="M113.441 142.576H71.5229V146.35H113.441V142.576Z" fill="#DAE9FE"/>
<path d="M107.033 135.761H77.9299V139.535H107.033V135.761Z" fill="#DAE9FE"/>
<path opacity="0.15" d="M342.14 347.474H59.7881C57.4801 347.474 56.3891 344.627 58.1061 343.085L95.5901 309.426C97.2371 307.947 99.3721 307.129 101.585 307.129H300.342C302.555 307.129 304.691 307.947 306.337 309.426L343.821 343.085C345.538 344.626 344.448 347.474 342.14 347.474Z" fill="black"/>
<path d="M306.041 274.597H95.8871C91.4721 274.597 87.8921 271.018 87.8921 266.602V135.157C87.8921 130.742 91.4711 127.162 95.8871 127.162H306.041C310.456 127.162 314.036 130.741 314.036 135.157V266.602C314.035 271.017 310.456 274.597 306.041 274.597Z" fill="#ACACAC"/>
<path d="M303.356 134.073H98.571C96.9142 134.073 95.571 135.416 95.571 137.073V264.685C95.571 266.342 96.9142 267.685 98.571 267.685H303.356C305.013 267.685 306.356 266.342 306.356 264.685V137.073C306.356 135.416 305.013 134.073 303.356 134.073Z" fill="white"/>
<g filter="url(#filter1_b_124_33)">
<path d="M303.356 134.073H98.571C96.9142 134.073 95.571 135.416 95.571 137.073V264.685C95.571 266.342 96.9142 267.685 98.571 267.685H303.356C305.013 267.685 306.356 266.342 306.356 264.685V137.073C306.356 135.416 305.013 134.073 303.356 134.073Z" fill="url(#paint1_linear_124_33)" fill-opacity="0.1"/>
</g>
<path d="M46.9281 316.729C46.9281 316.729 47.8611 323.842 53.7341 323.842H200.963H348.192C354.066 323.842 354.998 316.729 354.998 316.729H46.9281Z" fill="#A0A0A0"/>
<path d="M352.731 317.968H49.197C46.716 317.968 45.543 314.907 47.389 313.249L87.685 277.065C89.455 275.475 91.7511 274.596 94.1301 274.596H307.798C310.177 274.596 312.473 275.475 314.243 277.065L354.539 313.249C356.384 314.907 355.212 317.968 352.731 317.968Z" fill="#E2E2E2"/>
<path d="M76.063 297.745L97.302 278.674H304.625L326.225 298.069L76.063 297.745Z" fill="#A0A0A0"/>
<path d="M242.536 313.493H159.391L165.747 302.026H236.181L242.536 313.493Z" fill="#A0A0A0"/>
<g filter="url(#filter2_d_124_33)">
<path d="M321.291 214.848H339.188C340.793 221.616 346.023 222.83 349.05 222.943C349.668 222.966 349.935 222.187 349.448 221.806C346.123 219.209 347.383 214.848 347.383 214.848H359.49C360.886 214.848 362.028 213.706 362.028 212.31V188.538C362.028 187.142 360.886 186 359.49 186H321.292C319.896 186 318.754 187.142 318.754 188.538V212.31C318.753 213.706 319.895 214.848 321.291 214.848Z" fill="#D279A9"/>
<path d="M347.745 200.101C347.745 198.582 348.976 197.351 350.495 197.351C352.014 197.351 353.245 198.582 353.245 200.101C353.245 201.62 352.014 202.851 350.495 202.851C348.977 202.852 347.745 201.62 347.745 200.101Z" fill="#FEFFFF"/>
<path d="M337.64 200.101C337.64 198.582 338.871 197.351 340.39 197.351C341.909 197.351 343.14 198.582 343.14 200.101C343.14 201.62 341.909 202.851 340.39 202.851C338.871 202.852 337.64 201.62 337.64 200.101Z" fill="#FEFFFF"/>
<path d="M327.534 200.101C327.534 198.582 328.765 197.351 330.284 197.351C331.803 197.351 333.034 198.582 333.034 200.101C333.034 201.62 331.803 202.851 330.284 202.851C328.765 202.852 327.534 201.62 327.534 200.101Z" fill="#FEFFFF"/>
</g>
<g filter="url(#filter3_d_124_33)">
<path d="M330.737 254.01H312.84C311.235 260.778 306.005 261.992 302.978 262.105C302.36 262.128 302.093 261.349 302.58 260.968C305.905 258.371 304.645 254.01 304.645 254.01H292.538C291.142 254.01 290 252.868 290 251.472V227.7C290 226.304 291.142 225.162 292.538 225.162H330.736C332.132 225.162 333.274 226.304 333.274 227.7V251.472C333.275 252.868 332.133 254.01 330.737 254.01Z" fill="#0CC3D8"/>
</g>
<path d="M304.282 239.263C304.282 237.744 303.051 236.513 301.532 236.513C300.013 236.513 298.782 237.744 298.782 239.263C298.782 240.782 300.013 242.013 301.532 242.013C303.051 242.013 304.282 240.782 304.282 239.263Z" fill="#C2FFF3"/>
<path d="M314.388 239.263C314.388 237.744 313.157 236.513 311.638 236.513C310.119 236.513 308.888 237.744 308.888 239.263C308.888 240.782 310.119 242.013 311.638 242.013C313.157 242.013 314.388 240.782 314.388 239.263Z" fill="#C2FFF3"/>
<path d="M324.494 239.263C324.494 237.744 323.263 236.513 321.744 236.513C320.225 236.513 318.994 237.744 318.994 239.263C318.994 240.782 320.225 242.013 321.744 242.013C323.263 242.013 324.494 240.782 324.494 239.263Z" fill="#C2FFF3"/>
<mask id="mask0_124_33" style="mask-type:luminance" maskUnits="userSpaceOnUse" x="137" y="126" width="137" height="130">
<path d="M273.394 126H137V255.057H273.394V126Z" fill="white"/>
</mask>
<g mask="url(#mask0_124_33)">
<path d="M272.347 80.2759H145.023V247.896H254.627L272.347 230.176V80.2759Z" fill="#070911" fill-opacity="0.51"/>
</g>
<path d="M137.838 241.59V74.97H264.162V224.163L246.735 241.59H137.838Z" fill="#F9F9FB" stroke="#E3E3E3"/>
<path d="M247.911 236.553H142.875V80.0071H259.126V224.932" stroke="#E3E3E3" stroke-miterlimit="10" stroke-linecap="round" stroke-linejoin="round"/>
<path d="M246.942 242.09L264.662 224.37H246.942V242.09Z" fill="#3D3E55"/>
<path d="M196.791 228.564L192.756 224.358L186.935 224.66L193.301 208.921L203.157 212.826L196.791 228.564Z" fill="#6C53A2"/>
<path d="M205.063 228.564L209.098 224.358L214.919 224.66L208.699 208.921L198.843 212.826L205.063 228.564Z" fill="#6C53A2"/>
<path d="M216.522 202.057L217.235 199.194L215.59 196.746L215.277 193.813L212.891 192.079L211.595 189.43L208.762 188.611L206.639 186.564L203.697 186.768L201 185.574L198.303 186.768L195.36 186.564L193.237 188.612L190.404 189.43L189.108 192.08L186.723 193.814L186.41 196.747L184.765 199.195L185.478 202.057L184.765 204.92L186.41 207.368L186.723 210.301L189.109 212.035L190.405 214.685L193.238 215.503L195.361 217.55L198.303 217.346L201 218.54L203.697 217.346L206.64 217.55L208.762 215.502L211.596 214.684L212.892 212.034L215.277 210.3L215.59 207.367L217.235 204.919L216.522 202.057Z" fill="#8B69D2"/>
<path d="M211.17 206.264C213.494 200.653 210.829 194.22 205.218 191.896C199.607 189.571 193.174 192.236 190.849 197.847C188.525 203.458 191.19 209.892 196.801 212.216C202.412 214.54 208.845 211.876 211.17 206.264Z" stroke="#F0F6FF" stroke-width="0.75" stroke-miterlimit="10"/>
<path d="M155.473 142.845H246.527" stroke="#5E626C" stroke-miterlimit="10"/>
<path d="M155.473 150.796H246.527" stroke="#5E626C" stroke-miterlimit="10"/>
<path d="M155.473 134.894H246.527" stroke="#5E626C" stroke-miterlimit="10"/>
<path d="M155.473 158.833H246.527" stroke="#5E626C" stroke-miterlimit="10"/>
<path d="M155.473 166.784H246.527" stroke="#5E626C" stroke-miterlimit="10"/>
<path d="M169.023 174.735H232.977" stroke="#5E626C" stroke-miterlimit="10"/>
<mask id="path-42-inside-1_124_33" fill="white">
<path d="M186.438 103.13C186.438 104.215 186.227 105.129 185.805 105.874C185.384 106.616 184.815 107.179 184.098 107.562C183.382 107.943 182.583 108.133 181.702 108.133C180.814 108.133 180.012 107.941 179.295 107.558C178.582 107.171 178.015 106.606 177.593 105.865C177.175 105.12 176.965 104.208 176.965 103.13C176.965 102.046 177.175 101.133 177.593 100.391C178.015 99.6464 178.582 99.0837 179.295 98.7032C180.012 98.3196 180.814 98.1278 181.702 98.1278C182.583 98.1278 183.382 98.3196 184.098 98.7032C184.815 99.0837 185.384 99.6464 185.805 100.391C186.227 101.133 186.438 102.046 186.438 103.13ZM183.718 103.13C183.718 102.547 183.64 102.056 183.485 101.656C183.333 101.254 183.106 100.949 182.805 100.743C182.507 100.534 182.139 100.429 181.702 100.429C181.264 100.429 180.895 100.534 180.594 100.743C180.296 100.949 180.069 101.254 179.914 101.656C179.761 102.056 179.685 102.547 179.685 103.13C179.685 103.714 179.761 104.207 179.914 104.609C180.069 105.009 180.296 105.313 180.594 105.522C180.895 105.728 181.264 105.831 181.702 105.831C182.139 105.831 182.507 105.728 182.805 105.522C183.106 105.313 183.333 105.009 183.485 104.609C183.64 104.207 183.718 103.714 183.718 103.13ZM196.087 98.261V108H193.881L190.362 102.883H190.305V108H187.661V98.261H189.906L193.367 103.359H193.443V98.261H196.087ZM197.338 108V98.261H199.982V105.869H203.919V108H197.338ZM207.632 98.261V108H204.988V98.261H207.632ZM217.311 98.261V108H215.105L211.586 102.883H211.529V108H208.885V98.261H211.129L214.591 103.359H214.667V98.261H217.311ZM218.562 108V98.261H225.581V100.391H221.206V102.065H225.219V104.196H221.206V105.869H225.562V108H218.562Z"/>
</mask>
<path d="M186.438 103.13C186.438 104.215 186.227 105.129 185.805 105.874C185.384 106.616 184.815 107.179 184.098 107.562C183.382 107.943 182.583 108.133 181.702 108.133C180.814 108.133 180.012 107.941 179.295 107.558C178.582 107.171 178.015 106.606 177.593 105.865C177.175 105.12 176.965 104.208 176.965 103.13C176.965 102.046 177.175 101.133 177.593 100.391C178.015 99.6464 178.582 99.0837 179.295 98.7032C180.012 98.3196 180.814 98.1278 181.702 98.1278C182.583 98.1278 183.382 98.3196 184.098 98.7032C184.815 99.0837 185.384 99.6464 185.805 100.391C186.227 101.133 186.438 102.046 186.438 103.13ZM183.718 103.13C183.718 102.547 183.64 102.056 183.485 101.656C183.333 101.254 183.106 100.949 182.805 100.743C182.507 100.534 182.139 100.429 181.702 100.429C181.264 100.429 180.895 100.534 180.594 100.743C180.296 100.949 180.069 101.254 179.914 101.656C179.761 102.056 179.685 102.547 179.685 103.13C179.685 103.714 179.761 104.207 179.914 104.609C180.069 105.009 180.296 105.313 180.594 105.522C180.895 105.728 181.264 105.831 181.702 105.831C182.139 105.831 182.507 105.728 182.805 105.522C183.106 105.313 183.333 105.009 183.485 104.609C183.64 104.207 183.718 103.714 183.718 103.13ZM196.087 98.261V108H193.881L190.362 102.883H190.305V108H187.661V98.261H189.906L193.367 103.359H193.443V98.261H196.087ZM197.338 108V98.261H199.982V105.869H203.919V108H197.338ZM207.632 98.261V108H204.988V98.261H207.632ZM217.311 98.261V108H215.105L211.586 102.883H211.529V108H208.885V98.261H211.129L214.591 103.359H214.667V98.261H217.311ZM218.562 108V98.261H225.581V100.391H221.206V102.065H225.219V104.196H221.206V105.869H225.562V108H218.562Z" fill="#5E626C"/>
<path d="M185.805 105.874L186.675 106.368L186.676 106.367L185.805 105.874ZM184.098 107.562L184.567 108.445L184.57 108.444L184.098 107.562ZM179.295 107.558L178.819 108.437L178.823 108.439L179.295 107.558ZM177.593 105.865L176.721 106.354L176.724 106.359L177.593 105.865ZM177.593 100.391L176.723 99.8988L176.722 99.9L177.593 100.391ZM179.295 98.7032L179.766 99.5856L179.767 99.5848L179.295 98.7032ZM184.098 98.7032L183.626 99.5848L183.629 99.5864L184.098 98.7032ZM185.805 100.391L184.935 100.884L184.936 100.885L185.805 100.391ZM183.485 101.656L182.549 102.01L182.553 102.019L183.485 101.656ZM182.805 100.743L182.23 101.562L182.24 101.569L182.805 100.743ZM180.594 100.743L181.162 101.566L181.164 101.564L180.594 100.743ZM179.914 101.656L178.981 101.296L178.979 101.3L179.914 101.656ZM179.914 104.609L178.978 104.963L178.982 104.972L179.914 104.609ZM180.594 105.522L180.019 106.341L180.029 106.348L180.594 105.522ZM182.805 105.522L183.374 106.345L183.375 106.344L182.805 105.522ZM183.485 104.609L182.552 104.249L182.55 104.253L183.485 104.609ZM185.438 103.13C185.438 104.087 185.252 104.822 184.935 105.382L186.676 106.367C187.202 105.437 187.438 104.342 187.438 103.13H185.438ZM184.936 105.38C184.603 105.966 184.168 106.391 183.626 106.681L184.57 108.444C185.462 107.967 186.165 107.266 186.675 106.368L184.936 105.38ZM183.629 106.679C183.069 106.976 182.434 107.133 181.702 107.133V109.133C182.732 109.133 183.694 108.909 184.567 108.445L183.629 106.679ZM181.702 107.133C180.963 107.133 180.326 106.975 179.767 106.676L178.823 108.439C179.698 108.907 180.665 109.133 181.702 109.133V107.133ZM179.772 106.678C179.232 106.385 178.797 105.959 178.462 105.371L176.724 106.359C177.233 107.254 177.932 107.956 178.819 108.437L179.772 106.678ZM178.465 105.375C178.15 104.814 177.965 104.081 177.965 103.13H175.965C175.965 104.336 176.199 105.426 176.721 106.354L178.465 105.375ZM177.965 103.13C177.965 102.172 178.15 101.439 178.464 100.883L176.722 99.9C176.199 100.827 175.965 101.92 175.965 103.13H177.965ZM178.463 100.884C178.797 100.294 179.23 99.8713 179.766 99.5856L178.825 97.8209C177.934 98.296 177.232 98.9988 176.723 99.8988L178.463 100.884ZM179.767 99.5848C180.326 99.286 180.963 99.1278 181.702 99.1278V97.1278C180.665 97.1278 179.698 97.3533 178.823 97.8216L179.767 99.5848ZM181.702 99.1278C182.432 99.1278 183.067 99.2854 183.626 99.5848L184.57 97.8216C183.696 97.3539 182.733 97.1278 181.702 97.1278V99.1278ZM183.629 99.5864C184.168 99.8725 184.602 100.295 184.935 100.884L186.676 99.8988C186.166 98.9976 185.461 98.2948 184.567 97.82L183.629 99.5864ZM184.936 100.885C185.252 101.441 185.438 102.173 185.438 103.13H187.438C187.438 101.919 187.202 100.825 186.675 99.8972L184.936 100.885ZM184.718 103.13C184.718 102.465 184.63 101.842 184.417 101.294L182.553 102.019C182.65 102.269 182.718 102.629 182.718 103.13H184.718ZM184.42 101.303C184.209 100.744 183.868 100.259 183.369 99.9179L182.24 101.569C182.344 101.639 182.456 101.763 182.549 102.01L184.42 101.303ZM183.379 99.9248C182.882 99.5752 182.302 99.4294 181.702 99.4294V101.429C181.976 101.429 182.132 101.493 182.23 101.562L183.379 99.9248ZM181.702 99.4294C181.1 99.4294 180.522 99.5754 180.023 99.922L181.164 101.564C181.268 101.493 181.428 101.429 181.702 101.429V99.4294ZM180.025 99.9207C179.532 100.261 179.194 100.743 178.981 101.296L180.847 102.016C180.944 101.764 181.059 101.637 181.162 101.566L180.025 99.9207ZM178.979 101.3C178.771 101.847 178.685 102.467 178.685 103.13H180.685C180.685 102.627 180.752 102.265 180.848 102.012L178.979 101.3ZM178.685 103.13C178.685 103.794 178.771 104.415 178.978 104.963L180.849 104.256C180.752 103.998 180.685 103.633 180.685 103.13H178.685ZM178.982 104.972C179.195 105.522 179.533 105.999 180.019 106.341L181.168 104.704C181.059 104.627 180.942 104.496 180.846 104.247L178.982 104.972ZM180.029 106.348C180.527 106.688 181.103 106.831 181.702 106.831V104.831C181.425 104.831 181.262 104.768 181.158 104.697L180.029 106.348ZM181.702 106.831C182.299 106.831 182.876 106.689 183.374 106.345L182.236 104.7C182.137 104.768 181.979 104.831 181.702 104.831V106.831ZM183.375 106.344C183.868 106.001 184.208 105.521 184.419 104.965L182.55 104.253C182.458 104.497 182.344 104.625 182.234 104.701L183.375 106.344ZM184.418 104.969C184.63 104.419 184.718 103.796 184.718 103.13H182.718C182.718 103.631 182.65 103.994 182.552 104.249L184.418 104.969ZM196.087 98.261H197.087V97.261H196.087V98.261ZM196.087 108V109H197.087V108H196.087ZM193.881 108L193.057 108.566L193.355 109H193.881V108ZM190.362 102.883L191.186 102.316L190.888 101.883H190.362V102.883ZM190.305 102.883V101.883H189.305V102.883H190.305ZM190.305 108V109H191.305V108H190.305ZM187.661 108H186.661V109H187.661V108ZM187.661 98.261V97.261H186.661V98.261H187.661ZM189.906 98.261L190.733 97.6992L190.435 97.261H189.906V98.261ZM193.367 103.359L192.54 103.92L192.838 104.359H193.367V103.359ZM193.443 103.359V104.359H194.443V103.359H193.443ZM193.443 98.261V97.261H192.443V98.261H193.443ZM195.087 98.261V108H197.087V98.261H195.087ZM196.087 107H193.881V109H196.087V107ZM194.705 107.433L191.186 102.316L189.538 103.45L193.057 108.566L194.705 107.433ZM190.362 101.883H190.305V103.883H190.362V101.883ZM189.305 102.883V108H191.305V102.883H189.305ZM190.305 107H187.661V109H190.305V107ZM188.661 108V98.261H186.661V108H188.661ZM187.661 99.261H189.906V97.261H187.661V99.261ZM189.078 98.8228L192.54 103.92L194.195 102.797L190.733 97.6992L189.078 98.8228ZM193.367 104.359H193.443V102.359H193.367V104.359ZM194.443 103.359V98.261H192.443V103.359H194.443ZM193.443 99.261H196.087V97.261H193.443V99.261ZM197.338 108H196.338V109H197.338V108ZM197.338 98.261V97.261H196.338V98.261H197.338ZM199.982 98.261H200.982V97.261H199.982V98.261ZM199.982 105.869H198.982V106.869H199.982V105.869ZM203.919 105.869H204.919V104.869H203.919V105.869ZM203.919 108V109H204.919V108H203.919ZM198.338 108V98.261H196.338V108H198.338ZM197.338 99.261H199.982V97.261H197.338V99.261ZM198.982 98.261V105.869H200.982V98.261H198.982ZM199.982 106.869H203.919V104.869H199.982V106.869ZM202.919 105.869V108H204.919V105.869H202.919ZM203.919 107H197.338V109H203.919V107ZM207.632 98.261H208.632V97.261H207.632V98.261ZM207.632 108V109H208.632V108H207.632ZM204.988 108H203.988V109H204.988V108ZM204.988 98.261V97.261H203.988V98.261H204.988ZM206.632 98.261V108H208.632V98.261H206.632ZM207.632 107H204.988V109H207.632V107ZM205.988 108V98.261H203.988V108H205.988ZM204.988 99.261H207.632V97.261H204.988V99.261ZM217.311 98.261H218.311V97.261H217.311V98.261ZM217.311 108V109H218.311V108H217.311ZM215.105 108L214.281 108.566L214.579 109H215.105V108ZM211.586 102.883L212.41 102.316L212.112 101.883H211.586V102.883ZM211.529 102.883V101.883H210.529V102.883H211.529ZM211.529 108V109H212.529V108H211.529ZM208.885 108H207.885V109H208.885V108ZM208.885 98.261V97.261H207.885V98.261H208.885ZM211.129 98.261L211.957 97.6992L211.659 97.261H211.129V98.261ZM214.591 103.359L213.764 103.92L214.062 104.359H214.591V103.359ZM214.667 103.359V104.359H215.667V103.359H214.667ZM214.667 98.261V97.261H213.667V98.261H214.667ZM216.311 98.261V108H218.311V98.261H216.311ZM217.311 107H215.105V109H217.311V107ZM215.929 107.433L212.41 102.316L210.762 103.45L214.281 108.566L215.929 107.433ZM211.586 101.883H211.529V103.883H211.586V101.883ZM210.529 102.883V108H212.529V102.883H210.529ZM211.529 107H208.885V109H211.529V107ZM209.885 108V98.261H207.885V108H209.885ZM208.885 99.261H211.129V97.261H208.885V99.261ZM210.302 98.8228L213.764 103.92L215.419 102.797L211.957 97.6992L210.302 98.8228ZM214.591 104.359H214.667V102.359H214.591V104.359ZM215.667 103.359V98.261H213.667V103.359H215.667ZM214.667 99.261H217.311V97.261H214.667V99.261ZM218.562 108H217.562V109H218.562V108ZM218.562 98.261V97.261H217.562V98.261H218.562ZM225.581 98.261H226.581V97.261H225.581V98.261ZM225.581 100.391V101.391H226.581V100.391H225.581ZM221.206 100.391V99.3913H220.206V100.391H221.206ZM221.206 102.065H220.206V103.065H221.206V102.065ZM225.219 102.065H226.219V101.065H225.219V102.065ZM225.219 104.196V105.196H226.219V104.196H225.219ZM221.206 104.196V103.196H220.206V104.196H221.206ZM221.206 105.869H220.206V106.869H221.206V105.869ZM225.562 105.869H226.562V104.869H225.562V105.869ZM225.562 108V109H226.562V108H225.562ZM219.562 108V98.261H217.562V108H219.562ZM218.562 99.261H225.581V97.261H218.562V99.261ZM224.581 98.261V100.391H226.581V98.261H224.581ZM225.581 99.3913H221.206V101.391H225.581V99.3913ZM220.206 100.391V102.065H222.206V100.391H220.206ZM221.206 103.065H225.219V101.065H221.206V103.065ZM224.219 102.065V104.196H226.219V102.065H224.219ZM225.219 103.196H221.206V105.196H225.219V103.196ZM220.206 104.196V105.869H222.206V104.196H220.206ZM221.206 106.869H225.562V104.869H221.206V106.869ZM224.562 105.869V108H226.562V105.869H224.562ZM225.562 107H218.562V109H225.562V107Z" fill="#5E626C" mask="url(#path-42-inside-1_124_33)"/>
<mask id="path-44-inside-2_124_33" fill="white">
<path d="M166.062 115.304H163.38C163.361 115.082 163.31 114.881 163.228 114.7C163.149 114.52 163.038 114.364 162.895 114.234C162.755 114.101 162.586 114 162.386 113.93C162.186 113.857 161.96 113.821 161.706 113.821C161.262 113.821 160.887 113.928 160.579 114.144C160.275 114.359 160.043 114.669 159.885 115.071C159.73 115.474 159.652 115.957 159.652 116.521C159.652 117.117 159.731 117.617 159.89 118.019C160.051 118.419 160.284 118.72 160.589 118.923C160.893 119.123 161.259 119.222 161.687 119.222C161.931 119.222 162.15 119.192 162.343 119.132C162.537 119.069 162.705 118.978 162.847 118.861C162.99 118.744 163.106 118.603 163.195 118.438C163.286 118.27 163.348 118.081 163.38 117.872L166.062 117.891C166.03 118.303 165.915 118.723 165.715 119.151C165.515 119.576 165.231 119.969 164.864 120.33C164.499 120.689 164.047 120.977 163.508 121.196C162.969 121.415 162.343 121.524 161.63 121.524C160.736 121.524 159.934 121.332 159.224 120.949C158.517 120.565 157.957 120.001 157.545 119.256C157.136 118.511 156.932 117.599 156.932 116.521C156.932 115.437 157.141 114.524 157.56 113.782C157.978 113.037 158.542 112.475 159.252 112.094C159.963 111.711 160.755 111.519 161.63 111.519C162.245 111.519 162.811 111.603 163.328 111.771C163.844 111.939 164.298 112.185 164.688 112.508C165.078 112.828 165.391 113.223 165.629 113.692C165.867 114.161 166.011 114.699 166.062 115.304ZM167.261 121.391V111.652H174.28V113.782H169.905V115.456H173.919V117.587H169.905V119.261H174.261V121.391H167.261ZM175.591 121.391V111.652H179.795C180.518 111.652 181.15 111.784 181.692 112.047C182.235 112.31 182.656 112.689 182.957 113.183C183.259 113.678 183.409 114.271 183.409 114.962C183.409 115.659 183.254 116.247 182.943 116.726C182.636 117.205 182.203 117.566 181.645 117.81C181.09 118.054 180.442 118.176 179.7 118.176H177.189V116.122H179.167C179.478 116.122 179.743 116.084 179.962 116.008C180.183 115.929 180.353 115.803 180.47 115.632C180.591 115.461 180.651 115.238 180.651 114.962C180.651 114.683 180.591 114.456 180.47 114.282C180.353 114.104 180.183 113.974 179.962 113.892C179.743 113.806 179.478 113.763 179.167 113.763H178.235V121.391H175.591ZM181.298 116.921L183.732 121.391H180.86L178.483 116.921H181.298ZM184.27 113.782V111.652H192.734V113.782H189.805V121.391H187.199V113.782H184.27ZM196.373 111.652V121.391H193.729V111.652H196.373ZM197.626 121.391V111.652H204.474V113.782H200.27V115.456H204.055V117.587H200.27V121.391H197.626ZM208.09 111.652V121.391H205.446V111.652H208.09ZM218.435 115.304H215.753C215.734 115.082 215.683 114.881 215.601 114.7C215.522 114.52 215.411 114.364 215.268 114.234C215.129 114.101 214.959 114 214.759 113.93C214.56 113.857 214.333 113.821 214.079 113.821C213.636 113.821 213.26 113.928 212.952 114.144C212.648 114.359 212.417 114.669 212.258 115.071C212.103 115.474 212.025 115.957 212.025 116.521C212.025 117.117 212.104 117.617 212.263 118.019C212.425 118.419 212.658 118.72 212.962 118.923C213.266 119.123 213.632 119.222 214.06 119.222C214.304 119.222 214.523 119.192 214.717 119.132C214.91 119.069 215.078 118.978 215.221 118.861C215.363 118.744 215.479 118.603 215.568 118.438C215.66 118.27 215.721 118.081 215.753 117.872L218.435 117.891C218.403 118.303 218.288 118.723 218.088 119.151C217.888 119.576 217.605 119.969 217.237 120.33C216.872 120.689 216.421 120.977 215.882 121.196C215.343 121.415 214.717 121.524 214.003 121.524C213.109 121.524 212.307 121.332 211.597 120.949C210.89 120.565 210.331 120.001 209.918 119.256C209.51 118.511 209.305 117.599 209.305 116.521C209.305 115.437 209.514 114.524 209.933 113.782C210.351 113.037 210.916 112.475 211.626 112.094C212.336 111.711 213.128 111.519 214.003 111.519C214.618 111.519 215.184 111.603 215.701 111.771C216.218 111.939 216.671 112.185 217.061 112.508C217.451 112.828 217.765 113.223 218.002 113.692C218.24 114.161 218.384 114.699 218.435 115.304ZM221.864 121.391H219.011L222.225 111.652H225.839L229.054 121.391H226.2L224.07 114.334H223.994L221.864 121.391ZM221.331 117.549H226.695V119.527H221.331V117.549ZM228.496 113.782V111.652H236.96V113.782H234.031V121.391H231.425V113.782H228.496ZM237.955 121.391V111.652H244.974V113.782H240.599V115.456H244.613V117.587H240.599V119.261H244.955V121.391H237.955Z"/>
</mask>
<path d="M166.062 115.304H163.38C163.361 115.082 163.31 114.881 163.228 114.7C163.149 114.52 163.038 114.364 162.895 114.234C162.755 114.101 162.586 114 162.386 113.93C162.186 113.857 161.96 113.821 161.706 113.821C161.262 113.821 160.887 113.928 160.579 114.144C160.275 114.359 160.043 114.669 159.885 115.071C159.73 115.474 159.652 115.957 159.652 116.521C159.652 117.117 159.731 117.617 159.89 118.019C160.051 118.419 160.284 118.72 160.589 118.923C160.893 119.123 161.259 119.222 161.687 119.222C161.931 119.222 162.15 119.192 162.343 119.132C162.537 119.069 162.705 118.978 162.847 118.861C162.99 118.744 163.106 118.603 163.195 118.438C163.286 118.27 163.348 118.081 163.38 117.872L166.062 117.891C166.03 118.303 165.915 118.723 165.715 119.151C165.515 119.576 165.231 119.969 164.864 120.33C164.499 120.689 164.047 120.977 163.508 121.196C162.969 121.415 162.343 121.524 161.63 121.524C160.736 121.524 159.934 121.332 159.224 120.949C158.517 120.565 157.957 120.001 157.545 119.256C157.136 118.511 156.932 117.599 156.932 116.521C156.932 115.437 157.141 114.524 157.56 113.782C157.978 113.037 158.542 112.475 159.252 112.094C159.963 111.711 160.755 111.519 161.63 111.519C162.245 111.519 162.811 111.603 163.328 111.771C163.844 111.939 164.298 112.185 164.688 112.508C165.078 112.828 165.391 113.223 165.629 113.692C165.867 114.161 166.011 114.699 166.062 115.304ZM167.261 121.391V111.652H174.28V113.782H169.905V115.456H173.919V117.587H169.905V119.261H174.261V121.391H167.261ZM175.591 121.391V111.652H179.795C180.518 111.652 181.15 111.784 181.692 112.047C182.235 112.31 182.656 112.689 182.957 113.183C183.259 113.678 183.409 114.271 183.409 114.962C183.409 115.659 183.254 116.247 182.943 116.726C182.636 117.205 182.203 117.566 181.645 117.81C181.09 118.054 180.442 118.176 179.7 118.176H177.189V116.122H179.167C179.478 116.122 179.743 116.084 179.962 116.008C180.183 115.929 180.353 115.803 180.47 115.632C180.591 115.461 180.651 115.238 180.651 114.962C180.651 114.683 180.591 114.456 180.47 114.282C180.353 114.104 180.183 113.974 179.962 113.892C179.743 113.806 179.478 113.763 179.167 113.763H178.235V121.391H175.591ZM181.298 116.921L183.732 121.391H180.86L178.483 116.921H181.298ZM184.27 113.782V111.652H192.734V113.782H189.805V121.391H187.199V113.782H184.27ZM196.373 111.652V121.391H193.729V111.652H196.373ZM197.626 121.391V111.652H204.474V113.782H200.27V115.456H204.055V117.587H200.27V121.391H197.626ZM208.09 111.652V121.391H205.446V111.652H208.09ZM218.435 115.304H215.753C215.734 115.082 215.683 114.881 215.601 114.7C215.522 114.52 215.411 114.364 215.268 114.234C215.129 114.101 214.959 114 214.759 113.93C214.56 113.857 214.333 113.821 214.079 113.821C213.636 113.821 213.26 113.928 212.952 114.144C212.648 114.359 212.417 114.669 212.258 115.071C212.103 115.474 212.025 115.957 212.025 116.521C212.025 117.117 212.104 117.617 212.263 118.019C212.425 118.419 212.658 118.72 212.962 118.923C213.266 119.123 213.632 119.222 214.06 119.222C214.304 119.222 214.523 119.192 214.717 119.132C214.91 119.069 215.078 118.978 215.221 118.861C215.363 118.744 215.479 118.603 215.568 118.438C215.66 118.27 215.721 118.081 215.753 117.872L218.435 117.891C218.403 118.303 218.288 118.723 218.088 119.151C217.888 119.576 217.605 119.969 217.237 120.33C216.872 120.689 216.421 120.977 215.882 121.196C215.343 121.415 214.717 121.524 214.003 121.524C213.109 121.524 212.307 121.332 211.597 120.949C210.89 120.565 210.331 120.001 209.918 119.256C209.51 118.511 209.305 117.599 209.305 116.521C209.305 115.437 209.514 114.524 209.933 113.782C210.351 113.037 210.916 112.475 211.626 112.094C212.336 111.711 213.128 111.519 214.003 111.519C214.618 111.519 215.184 111.603 215.701 111.771C216.218 111.939 216.671 112.185 217.061 112.508C217.451 112.828 217.765 113.223 218.002 113.692C218.24 114.161 218.384 114.699 218.435 115.304ZM221.864 121.391H219.011L222.225 111.652H225.839L229.054 121.391H226.2L224.07 114.334H223.994L221.864 121.391ZM221.331 117.549H226.695V119.527H221.331V117.549ZM228.496 113.782V111.652H236.96V113.782H234.031V121.391H231.425V113.782H228.496ZM237.955 121.391V111.652H244.974V113.782H240.599V115.456H244.613V117.587H240.599V119.261H244.955V121.391H237.955Z" fill="#5E626C"/>
<path d="M166.062 115.304V116.304H167.149L167.058 115.221L166.062 115.304ZM163.38 115.304L162.384 115.39L162.462 116.304H163.38V115.304ZM163.228 114.7L162.312 115.102L162.315 115.109L162.318 115.115L163.228 114.7ZM162.895 114.234L162.204 114.958L162.213 114.966L162.221 114.973L162.895 114.234ZM162.386 113.93L162.043 114.869L162.056 114.874L162.386 113.93ZM160.579 114.144L160.005 113.325L160.001 113.328L160.579 114.144ZM159.885 115.071L158.954 114.705L158.952 114.711L159.885 115.071ZM159.89 118.019L158.959 118.386L158.963 118.395L159.89 118.019ZM160.589 118.923L160.034 119.755L160.04 119.759L160.589 118.923ZM162.343 119.132L162.641 120.087L162.648 120.085L162.655 120.082L162.343 119.132ZM162.847 118.861L163.483 119.633L163.483 119.633L162.847 118.861ZM163.195 118.438L162.317 117.958L162.314 117.964L163.195 118.438ZM163.38 117.872L163.387 116.872L162.521 116.866L162.391 117.722L163.38 117.872ZM166.062 117.891L167.059 117.968L167.141 116.899L166.069 116.891L166.062 117.891ZM165.715 119.151L166.62 119.577L166.621 119.574L165.715 119.151ZM164.864 120.33L165.565 121.044L165.565 121.044L164.864 120.33ZM159.224 120.949L158.747 121.828L158.749 121.828L159.224 120.949ZM157.545 119.256L156.669 119.737L156.67 119.74L157.545 119.256ZM157.56 113.782L158.431 114.274L158.431 114.272L157.56 113.782ZM159.252 112.094L159.725 112.976L159.728 112.974L159.252 112.094ZM163.328 111.771L163.637 110.82L163.637 110.82L163.328 111.771ZM164.688 112.508L164.049 113.278L164.053 113.281L164.688 112.508ZM165.629 113.692L164.737 114.144L164.737 114.144L165.629 113.692ZM166.062 114.304H163.38V116.304H166.062V114.304ZM164.376 115.219C164.349 114.897 164.273 114.582 164.138 114.285L162.318 115.115C162.348 115.18 162.373 115.268 162.384 115.39L164.376 115.219ZM164.144 114.299C164.009 113.993 163.817 113.721 163.568 113.495L162.221 114.973C162.258 115.007 162.288 115.046 162.312 115.102L164.144 114.299ZM163.585 113.511C163.333 113.27 163.037 113.098 162.716 112.986L162.056 114.874C162.135 114.901 162.178 114.932 162.204 114.958L163.585 113.511ZM162.729 112.991C162.401 112.871 162.055 112.821 161.706 112.821V114.821C161.865 114.821 161.972 114.843 162.043 114.869L162.729 112.991ZM161.706 112.821C161.095 112.821 160.51 112.971 160.005 113.325L161.153 114.963C161.264 114.885 161.429 114.821 161.706 114.821V112.821ZM160.001 113.328C159.514 113.673 159.172 114.151 158.954 114.705L160.815 115.437C160.914 115.186 161.036 115.046 161.157 114.96L160.001 113.328ZM158.952 114.711C158.741 115.258 158.652 115.87 158.652 116.521H160.652C160.652 116.044 160.718 115.69 160.818 115.431L158.952 114.711ZM158.652 116.521C158.652 117.199 158.741 117.831 158.959 118.386L160.82 117.653C160.721 117.402 160.652 117.036 160.652 116.521H158.652ZM158.963 118.395C159.186 118.946 159.534 119.422 160.034 119.755L161.143 118.091C161.034 118.018 160.917 117.891 160.817 117.644L158.963 118.395ZM160.04 119.759C160.534 120.083 161.099 120.222 161.687 120.222V118.222C161.419 118.222 161.252 118.162 161.137 118.087L160.04 119.759ZM161.687 120.222C162.012 120.222 162.334 120.183 162.641 120.087L162.046 118.177C161.966 118.202 161.85 118.222 161.687 118.222V120.222ZM162.655 120.082C162.954 119.984 163.235 119.837 163.483 119.633L162.212 118.089C162.175 118.119 162.119 118.153 162.032 118.182L162.655 120.082ZM163.483 119.633C163.727 119.432 163.925 119.19 164.075 118.912L162.314 117.964C162.286 118.016 162.253 118.055 162.212 118.089L163.483 119.633ZM164.072 118.918C164.226 118.637 164.321 118.335 164.369 118.022L162.391 117.722C162.375 117.828 162.347 117.903 162.317 117.958L164.072 118.918ZM163.373 118.872L166.055 118.891L166.069 116.891L163.387 116.872L163.373 118.872ZM165.065 117.814C165.044 118.091 164.965 118.394 164.809 118.728L166.621 119.574C166.864 119.052 167.017 118.516 167.059 117.968L165.065 117.814ZM164.81 118.726C164.665 119.033 164.454 119.331 164.163 119.617L165.565 121.044C166.009 120.607 166.365 120.119 166.62 119.577L164.81 118.726ZM164.163 119.617C163.903 119.872 163.567 120.093 163.132 120.269L163.884 122.122C164.528 121.861 165.095 121.505 165.565 121.044L164.163 119.617ZM163.132 120.269C162.737 120.43 162.243 120.524 161.63 120.524V122.524C162.444 122.524 163.202 122.399 163.884 122.122L163.132 120.269ZM161.63 120.524C160.884 120.524 160.248 120.365 159.699 120.069L158.749 121.828C159.62 122.299 160.588 122.524 161.63 122.524V120.524ZM159.701 120.07C159.172 119.782 158.746 119.36 158.42 118.772L156.67 119.74C157.169 120.641 157.862 121.348 158.747 121.828L159.701 120.07ZM158.422 118.775C158.113 118.211 157.932 117.475 157.932 116.521H155.932C155.932 117.723 156.16 118.81 156.669 119.737L158.422 118.775ZM157.932 116.521C157.932 115.563 158.117 114.83 158.431 114.274L156.689 113.291C156.165 114.218 155.932 115.311 155.932 116.521H157.932ZM158.431 114.272C158.763 113.683 159.193 113.261 159.725 112.976L158.78 111.213C157.892 111.689 157.193 112.392 156.688 113.293L158.431 114.272ZM159.728 112.974C160.28 112.676 160.907 112.519 161.63 112.519V110.519C160.603 110.519 159.645 110.746 158.777 111.215L159.728 112.974ZM161.63 112.519C162.154 112.519 162.614 112.59 163.018 112.722L163.637 110.82C163.008 110.616 162.336 110.519 161.63 110.519V112.519ZM163.018 112.722C163.424 112.854 163.764 113.041 164.049 113.278L165.326 111.738C164.832 111.329 164.265 111.024 163.637 110.82L163.018 112.722ZM164.053 113.281C164.331 113.509 164.559 113.793 164.737 114.144L166.521 113.24C166.224 112.653 165.824 112.147 165.322 111.735L164.053 113.281ZM164.737 114.144C164.908 114.482 165.024 114.891 165.065 115.388L167.058 115.221C166.999 114.506 166.826 113.841 166.521 113.24L164.737 114.144ZM167.261 121.391H166.261V122.391H167.261V121.391ZM167.261 111.652V110.652H166.261V111.652H167.261ZM174.28 111.652H175.28V110.652H174.28V111.652ZM174.28 113.782V114.782H175.28V113.782H174.28ZM169.905 113.782V112.782H168.905V113.782H169.905ZM169.905 115.456H168.905V116.456H169.905V115.456ZM173.919 115.456H174.919V114.456H173.919V115.456ZM173.919 117.587V118.587H174.919V117.587H173.919ZM169.905 117.587V116.587H168.905V117.587H169.905ZM169.905 119.261H168.905V120.261H169.905V119.261ZM174.261 119.261H175.261V118.261H174.261V119.261ZM174.261 121.391V122.391H175.261V121.391H174.261ZM168.261 121.391V111.652H166.261V121.391H168.261ZM167.261 112.652H174.28V110.652H167.261V112.652ZM173.28 111.652V113.782H175.28V111.652H173.28ZM174.28 112.782H169.905V114.782H174.28V112.782ZM168.905 113.782V115.456H170.905V113.782H168.905ZM169.905 116.456H173.919V114.456H169.905V116.456ZM172.919 115.456V117.587H174.919V115.456H172.919ZM173.919 116.587H169.905V118.587H173.919V116.587ZM168.905 117.587V119.261H170.905V117.587H168.905ZM169.905 120.261H174.261V118.261H169.905V120.261ZM173.261 119.261V121.391H175.261V119.261H173.261ZM174.261 120.391H167.261V122.391H174.261V120.391ZM175.591 121.391H174.591V122.391H175.591V121.391ZM175.591 111.652V110.652H174.591V111.652H175.591ZM182.957 113.183L183.811 112.663L183.811 112.663L182.957 113.183ZM182.943 116.726L182.104 116.182L182.102 116.185L182.943 116.726ZM181.645 117.81L181.244 116.894L181.242 116.895L181.645 117.81ZM177.189 118.176H176.189V119.176H177.189V118.176ZM177.189 116.122V115.122H176.189V116.122H177.189ZM179.962 116.008L180.29 116.952L180.298 116.95L179.962 116.008ZM180.47 115.632L179.653 115.057L179.645 115.067L180.47 115.632ZM180.47 114.282L179.636 114.833L179.642 114.842L179.648 114.85L180.47 114.282ZM179.962 113.892L179.597 114.823L179.605 114.826L179.613 114.829L179.962 113.892ZM178.235 113.763V112.763H177.235V113.763H178.235ZM178.235 121.391V122.391H179.235V121.391H178.235ZM181.298 116.921L182.176 116.443L181.892 115.921H181.298V116.921ZM183.732 121.391V122.391H185.416L184.611 120.913L183.732 121.391ZM180.86 121.391L179.977 121.86L180.26 122.391H180.86V121.391ZM178.483 116.921V115.921H176.818L177.6 117.391L178.483 116.921ZM176.591 121.391V111.652H174.591V121.391H176.591ZM175.591 112.652H179.795V110.652H175.591V112.652ZM179.795 112.652C180.396 112.652 180.874 112.761 181.256 112.946L182.129 111.147C181.426 110.806 180.639 110.652 179.795 110.652V112.652ZM181.256 112.946C181.633 113.129 181.906 113.38 182.103 113.703L183.811 112.663C183.406 111.998 182.837 111.491 182.129 111.147L181.256 112.946ZM182.103 113.703C182.292 114.013 182.409 114.418 182.409 114.962H184.409C184.409 114.123 184.225 113.342 183.811 112.663L182.103 113.703ZM182.409 114.962C182.409 115.509 182.288 115.898 182.104 116.182L183.782 117.27C184.219 116.597 184.409 115.809 184.409 114.962H182.409ZM182.102 116.185C181.908 116.486 181.635 116.723 181.244 116.894L182.046 118.726C182.771 118.409 183.363 117.923 183.784 117.266L182.102 116.185ZM181.242 116.895C180.839 117.072 180.333 117.176 179.7 117.176V119.176C180.55 119.176 181.341 119.036 182.048 118.725L181.242 116.895ZM179.7 117.176H177.189V119.176H179.7V117.176ZM178.189 118.176V116.122H176.189V118.176H178.189ZM177.189 117.122H179.167V115.122H177.189V117.122ZM179.167 117.122C179.554 117.122 179.937 117.075 180.29 116.952L179.633 115.063C179.549 115.093 179.402 115.122 179.167 115.122V117.122ZM180.298 116.95C180.69 116.81 181.043 116.566 181.295 116.197L179.645 115.067C179.648 115.064 179.651 115.06 179.654 115.057C179.657 115.053 179.66 115.051 179.661 115.05C179.664 115.048 179.655 115.056 179.625 115.066L180.298 116.95ZM181.288 116.208C181.56 115.822 181.651 115.379 181.651 114.962H179.651C179.651 115.028 179.644 115.063 179.64 115.076C179.637 115.087 179.639 115.076 179.653 115.057L181.288 116.208ZM181.651 114.962C181.651 114.543 181.56 114.1 181.293 113.713L179.648 114.85C179.621 114.812 179.651 114.822 179.651 114.962H181.651ZM181.305 113.731C181.057 113.356 180.707 113.102 180.31 112.954L179.613 114.829C179.641 114.839 179.649 114.847 179.647 114.845C179.646 114.844 179.644 114.842 179.641 114.84C179.639 114.837 179.637 114.835 179.636 114.833L181.305 113.731ZM180.326 112.961C179.96 112.818 179.565 112.763 179.167 112.763V114.763C179.391 114.763 179.525 114.795 179.597 114.823L180.326 112.961ZM179.167 112.763H178.235V114.763H179.167V112.763ZM177.235 113.763V121.391H179.235V113.763H177.235ZM178.235 120.391H175.591V122.391H178.235V120.391ZM180.42 117.399L182.854 121.869L184.611 120.913L182.176 116.443L180.42 117.399ZM183.732 120.391H180.86V122.391H183.732V120.391ZM181.743 120.921L179.366 116.451L177.6 117.391L179.977 121.86L181.743 120.921ZM178.483 117.921H181.298V115.921H178.483V117.921ZM184.27 113.782H183.27V114.782H184.27V113.782ZM184.27 111.652V110.652H183.27V111.652H184.27ZM192.734 111.652H193.734V110.652H192.734V111.652ZM192.734 113.782V114.782H193.734V113.782H192.734ZM189.805 113.782V112.782H188.805V113.782H189.805ZM189.805 121.391V122.391H190.805V121.391H189.805ZM187.199 121.391H186.199V122.391H187.199V121.391ZM187.199 113.782H188.199V112.782H187.199V113.782ZM185.27 113.782V111.652H183.27V113.782H185.27ZM184.27 112.652H192.734V110.652H184.27V112.652ZM191.734 111.652V113.782H193.734V111.652H191.734ZM192.734 112.782H189.805V114.782H192.734V112.782ZM188.805 113.782V121.391H190.805V113.782H188.805ZM189.805 120.391H187.199V122.391H189.805V120.391ZM188.199 121.391V113.782H186.199V121.391H188.199ZM187.199 112.782H184.27V114.782H187.199V112.782ZM196.373 111.652H197.373V110.652H196.373V111.652ZM196.373 121.391V122.391H197.373V121.391H196.373ZM193.729 121.391H192.729V122.391H193.729V121.391ZM193.729 111.652V110.652H192.729V111.652H193.729ZM195.373 111.652V121.391H197.373V111.652H195.373ZM196.373 120.391H193.729V122.391H196.373V120.391ZM194.729 121.391V111.652H192.729V121.391H194.729ZM193.729 112.652H196.373V110.652H193.729V112.652ZM197.626 121.391H196.626V122.391H197.626V121.391ZM197.626 111.652V110.652H196.626V111.652H197.626ZM204.474 111.652H205.474V110.652H204.474V111.652ZM204.474 113.782V114.782H205.474V113.782H204.474ZM200.27 113.782V112.782H199.27V113.782H200.27ZM200.27 115.456H199.27V116.456H200.27V115.456ZM204.055 115.456H205.055V114.456H204.055V115.456ZM204.055 117.587V118.587H205.055V117.587H204.055ZM200.27 117.587V116.587H199.27V117.587H200.27ZM200.27 121.391V122.391H201.27V121.391H200.27ZM198.626 121.391V111.652H196.626V121.391H198.626ZM197.626 112.652H204.474V110.652H197.626V112.652ZM203.474 111.652V113.782H205.474V111.652H203.474ZM204.474 112.782H200.27V114.782H204.474V112.782ZM199.27 113.782V115.456H201.27V113.782H199.27ZM200.27 116.456H204.055V114.456H200.27V116.456ZM203.055 115.456V117.587H205.055V115.456H203.055ZM204.055 116.587H200.27V118.587H204.055V116.587ZM199.27 117.587V121.391H201.27V117.587H199.27ZM200.27 120.391H197.626V122.391H200.27V120.391ZM208.09 111.652H209.09V110.652H208.09V111.652ZM208.09 121.391V122.391H209.09V121.391H208.09ZM205.446 121.391H204.446V122.391H205.446V121.391ZM205.446 111.652V110.652H204.446V111.652H205.446ZM207.09 111.652V121.391H209.09V111.652H207.09ZM208.09 120.391H205.446V122.391H208.09V120.391ZM206.446 121.391V111.652H204.446V121.391H206.446ZM205.446 112.652H208.09V110.652H205.446V112.652ZM218.435 115.304V116.304H219.522L219.432 115.221L218.435 115.304ZM215.753 115.304L214.757 115.39L214.835 116.304H215.753V115.304ZM215.601 114.7L214.685 115.102L214.688 115.109L214.691 115.115L215.601 114.7ZM215.268 114.234L214.578 114.958L214.586 114.966L214.595 114.973L215.268 114.234ZM214.759 113.93L214.416 114.869L214.43 114.874L214.759 113.93ZM212.952 114.144L212.378 113.325L212.374 113.328L212.952 114.144ZM212.258 115.071L211.328 114.705L211.325 114.711L212.258 115.071ZM212.263 118.019L211.332 118.386L211.336 118.395L212.263 118.019ZM212.962 118.923L212.407 119.755L212.413 119.759L212.962 118.923ZM214.717 119.132L215.014 120.087L215.021 120.085L215.028 120.082L214.717 119.132ZM215.221 118.861L215.856 119.633L215.856 119.633L215.221 118.861ZM215.568 118.438L214.69 117.958L214.687 117.964L215.568 118.438ZM215.753 117.872L215.76 116.872L214.894 116.866L214.764 117.722L215.753 117.872ZM218.435 117.891L219.432 117.968L219.514 116.899L218.442 116.891L218.435 117.891ZM218.088 119.151L218.993 119.577L218.994 119.574L218.088 119.151ZM217.237 120.33L217.938 121.044L217.938 121.044L217.237 120.33ZM211.597 120.949L211.12 121.828L211.122 121.828L211.597 120.949ZM209.918 119.256L209.042 119.737L209.043 119.74L209.918 119.256ZM209.933 113.782L210.804 114.274L210.805 114.272L209.933 113.782ZM211.626 112.094L212.098 112.976L212.101 112.974L211.626 112.094ZM215.701 111.771L216.01 110.82L216.01 110.82L215.701 111.771ZM217.061 112.508L216.423 113.278L216.426 113.281L217.061 112.508ZM218.002 113.692L217.11 114.144L217.11 114.144L218.002 113.692ZM218.435 114.304H215.753V116.304H218.435V114.304ZM216.75 115.219C216.722 114.897 216.646 114.582 216.511 114.285L214.691 115.115C214.721 115.18 214.746 115.268 214.757 115.39L216.75 115.219ZM216.517 114.299C216.383 113.993 216.19 113.721 215.942 113.495L214.595 114.973C214.631 115.007 214.661 115.046 214.685 115.102L216.517 114.299ZM215.959 113.511C215.706 113.27 215.41 113.098 215.089 112.986L214.43 114.874C214.508 114.901 214.551 114.932 214.578 114.958L215.959 113.511ZM215.102 112.991C214.774 112.871 214.428 112.821 214.079 112.821V114.821C214.238 114.821 214.345 114.843 214.416 114.869L215.102 112.991ZM214.079 112.821C213.468 112.821 212.883 112.971 212.378 113.325L213.526 114.963C213.637 114.885 213.803 114.821 214.079 114.821V112.821ZM212.374 113.328C211.887 113.673 211.546 114.151 211.328 114.705L213.189 115.437C213.287 115.186 213.409 115.046 213.53 114.96L212.374 113.328ZM211.325 114.711C211.114 115.258 211.025 115.87 211.025 116.521H213.025C213.025 116.044 213.091 115.69 213.191 115.431L211.325 114.711ZM211.025 116.521C211.025 117.199 211.114 117.831 211.332 118.386L213.193 117.653C213.095 117.402 213.025 117.036 213.025 116.521H211.025ZM211.336 118.395C211.559 118.946 211.908 119.422 212.407 119.755L213.517 118.091C213.407 118.018 213.29 117.891 213.19 117.644L211.336 118.395ZM212.413 119.759C212.907 120.083 213.472 120.222 214.06 120.222V118.222C213.792 118.222 213.625 118.162 213.511 118.087L212.413 119.759ZM214.06 120.222C214.385 120.222 214.707 120.183 215.014 120.087L214.419 118.177C214.339 118.202 214.224 118.222 214.06 118.222V120.222ZM215.028 120.082C215.327 119.984 215.608 119.837 215.856 119.633L214.585 118.089C214.548 118.119 214.492 118.153 214.405 118.182L215.028 120.082ZM215.856 119.633C216.1 119.432 216.299 119.19 216.448 118.912L214.687 117.964C214.659 118.016 214.626 118.055 214.585 118.089L215.856 119.633ZM216.445 118.918C216.599 118.637 216.694 118.335 216.742 118.022L214.764 117.722C214.748 117.828 214.721 117.903 214.69 117.958L216.445 118.918ZM215.746 118.872L218.428 118.891L218.442 116.891L215.76 116.872L215.746 118.872ZM217.438 117.814C217.417 118.091 217.338 118.394 217.182 118.728L218.994 119.574C219.238 119.052 219.39 118.516 219.432 117.968L217.438 117.814ZM217.183 118.726C217.038 119.033 216.827 119.331 216.536 119.617L217.938 121.044C218.382 120.607 218.738 120.119 218.993 119.577L217.183 118.726ZM216.536 119.617C216.277 119.872 215.94 120.093 215.505 120.269L216.258 122.122C216.901 121.861 217.468 121.505 217.938 121.044L216.536 119.617ZM215.505 120.269C215.11 120.43 214.616 120.524 214.003 120.524V122.524C214.817 122.524 215.576 122.399 216.258 122.122L215.505 120.269ZM214.003 120.524C213.257 120.524 212.621 120.365 212.072 120.069L211.122 121.828C211.993 122.299 212.962 122.524 214.003 122.524V120.524ZM212.074 120.07C211.545 119.782 211.119 119.36 210.794 118.772L209.043 119.74C209.542 120.641 210.236 121.348 211.12 121.828L212.074 120.07ZM210.795 118.775C210.486 118.211 210.305 117.475 210.305 116.521H208.305C208.305 117.723 208.533 118.81 209.042 119.737L210.795 118.775ZM210.305 116.521C210.305 115.563 210.49 114.83 210.804 114.274L209.062 113.291C208.539 114.218 208.305 115.311 208.305 116.521H210.305ZM210.805 114.272C211.136 113.683 211.566 113.261 212.098 112.976L211.153 111.213C210.265 111.689 209.567 112.392 209.061 113.293L210.805 114.272ZM212.101 112.974C212.653 112.676 213.28 112.519 214.003 112.519V110.519C212.977 110.519 212.019 110.746 211.15 111.215L212.101 112.974ZM214.003 112.519C214.527 112.519 214.987 112.59 215.392 112.722L216.01 110.82C215.381 110.616 214.71 110.519 214.003 110.519V112.519ZM215.392 112.722C215.797 112.854 216.137 113.041 216.423 113.278L217.699 111.738C217.205 111.329 216.638 111.024 216.01 110.82L215.392 112.722ZM216.426 113.281C216.705 113.509 216.933 113.793 217.11 114.144L218.894 113.24C218.597 112.653 218.197 112.147 217.695 111.735L216.426 113.281ZM217.11 114.144C217.282 114.482 217.397 114.891 217.439 115.388L219.432 115.221C219.372 114.506 219.199 113.841 218.894 113.24L217.11 114.144ZM221.864 121.391V122.391H222.606L222.821 121.68L221.864 121.391ZM219.011 121.391L218.061 121.077L217.627 122.391H219.011V121.391ZM222.225 111.652V110.652H221.502L221.275 111.339L222.225 111.652ZM225.839 111.652L226.789 111.339L226.562 110.652H225.839V111.652ZM229.054 121.391V122.391H230.437L230.003 121.077L229.054 121.391ZM226.2 121.391L225.243 121.68L225.458 122.391H226.2V121.391ZM224.07 114.334L225.027 114.045L224.813 113.334H224.07V114.334ZM223.994 114.334V113.334H223.251L223.037 114.045L223.994 114.334ZM221.331 117.549V116.549H220.331V117.549H221.331ZM226.695 117.549H227.695V116.549H226.695V117.549ZM226.695 119.527V120.527H227.695V119.527H226.695ZM221.331 119.527H220.331V120.527H221.331V119.527ZM221.864 120.391H219.011V122.391H221.864V120.391ZM219.96 121.704L223.175 111.966L221.275 111.339L218.061 121.077L219.96 121.704ZM222.225 112.652H225.839V110.652H222.225V112.652ZM224.889 111.966L228.104 121.704L230.003 121.077L226.789 111.339L224.889 111.966ZM229.054 120.391H226.2V122.391H229.054V120.391ZM227.158 121.102L225.027 114.045L223.113 114.623L225.243 121.68L227.158 121.102ZM224.07 113.334H223.994V115.334H224.07V113.334ZM223.037 114.045L220.906 121.102L222.821 121.68L224.951 114.623L223.037 114.045ZM221.331 118.549H226.695V116.549H221.331V118.549ZM225.695 117.549V119.527H227.695V117.549H225.695ZM226.695 118.527H221.331V120.527H226.695V118.527ZM222.331 119.527V117.549H220.331V119.527H222.331ZM228.496 113.782H227.496V114.782H228.496V113.782ZM228.496 111.652V110.652H227.496V111.652H228.496ZM236.96 111.652H237.96V110.652H236.96V111.652ZM236.96 113.782V114.782H237.96V113.782H236.96ZM234.031 113.782V112.782H233.031V113.782H234.031ZM234.031 121.391V122.391H235.031V121.391H234.031ZM231.425 121.391H230.425V122.391H231.425V121.391ZM231.425 113.782H232.425V112.782H231.425V113.782ZM229.496 113.782V111.652H227.496V113.782H229.496ZM228.496 112.652H236.96V110.652H228.496V112.652ZM235.96 111.652V113.782H237.96V111.652H235.96ZM236.96 112.782H234.031V114.782H236.96V112.782ZM233.031 113.782V121.391H235.031V113.782H233.031ZM234.031 120.391H231.425V122.391H234.031V120.391ZM232.425 121.391V113.782H230.425V121.391H232.425ZM231.425 112.782H228.496V114.782H231.425V112.782ZM237.955 121.391H236.955V122.391H237.955V121.391ZM237.955 111.652V110.652H236.955V111.652H237.955ZM244.974 111.652H245.974V110.652H244.974V111.652ZM244.974 113.782V114.782H245.974V113.782H244.974ZM240.599 113.782V112.782H239.599V113.782H240.599ZM240.599 115.456H239.599V116.456H240.599V115.456ZM244.613 115.456H245.613V114.456H244.613V115.456ZM244.613 117.587V118.587H245.613V117.587H244.613ZM240.599 117.587V116.587H239.599V117.587H240.599ZM240.599 119.261H239.599V120.261H240.599V119.261ZM244.955 119.261H245.955V118.261H244.955V119.261ZM244.955 121.391V122.391H245.955V121.391H244.955ZM238.955 121.391V111.652H236.955V121.391H238.955ZM237.955 112.652H244.974V110.652H237.955V112.652ZM243.974 111.652V113.782H245.974V111.652H243.974ZM244.974 112.782H240.599V114.782H244.974V112.782ZM239.599 113.782V115.456H241.599V113.782H239.599ZM240.599 116.456H244.613V114.456H240.599V116.456ZM243.613 115.456V117.587H245.613V115.456H243.613ZM244.613 116.587H240.599V118.587H244.613V116.587ZM239.599 117.587V119.261H241.599V117.587H239.599ZM240.599 120.261H244.955V118.261H240.599V120.261ZM243.955 119.261V121.391H245.955V119.261H243.955ZM244.955 120.391H237.955V122.391H244.955V120.391Z" fill="#5E626C" mask="url(#path-44-inside-2_124_33)"/>
<path d="M155.473 215.34H175.223" stroke="#5E626C" stroke-miterlimit="10"/>
<path d="M227.192 215.34H246.942" stroke="#5E626C" stroke-miterlimit="10"/>
<path d="M382 113.36L381.986 136.678C381.985 138.514 380.551 140.001 378.784 140L293.197 139.965C291.431 139.964 289.999 138.475 290 136.64L290.014 113.322C290.015 111.486 291.449 109.999 293.216 110L378.803 110.035C380.569 110.035 382.001 111.524 382 113.36Z" fill="black" fill-opacity="0.11"/>
<path d="M378.55 111.183L378.536 133.274C378.535 135.013 377.124 136.422 375.385 136.421L291.147 136.388C289.408 136.387 287.999 134.976 288 133.238L288.014 111.147C288.015 109.408 289.426 107.999 291.165 108L375.403 108.033C377.142 108.033 378.551 109.444 378.55 111.183Z" fill="url(#paint2_linear_124_33)"/>
<path d="M317.188 115.905L318.999 119.575L323.049 120.164L320.118 123.021L320.81 127.054L317.188 125.15L313.565 127.054L314.257 123.021L311.326 120.164L315.376 119.575L317.188 115.905Z" fill="#FEFEFE"/>
<path d="M301.147 115.905L302.959 119.575L307.009 120.164L304.078 123.021L304.77 127.054L301.147 125.15L297.525 127.054L298.217 123.021L295.286 120.164L299.336 119.575L301.147 115.905Z" fill="#FEFEFE"/>
<path d="M333.228 115.905L335.039 119.575L339.09 120.164L336.159 123.021L336.851 127.054L333.228 125.15L329.605 127.054L330.297 123.021L327.367 120.164L331.417 119.575L333.228 115.905Z" fill="#FEFEFE"/>
<path d="M349.285 115.905L351.096 119.575L355.146 120.164L352.216 123.021L352.908 127.054L349.285 125.15L345.662 127.054L346.354 123.021L343.424 120.164L347.474 119.575L349.285 115.905Z" fill="#FEFEFE"/>
<path d="M365.325 115.905L367.137 119.575L371.187 120.164L368.256 123.021L368.948 127.054L365.325 125.15L361.703 127.054L362.395 123.021L359.464 120.164L363.514 119.575L365.325 115.905Z" fill="#FEFEFE"/>
<mask id="mask1_124_33" style="mask-type:luminance" maskUnits="userSpaceOnUse" x="88" y="199" width="40" height="53">
<path d="M127.326 199.66H88.0051V251.884H127.326V199.66Z" fill="white"/>
</mask>
<g mask="url(#mask1_124_33)">
<path opacity="0.71" d="M104.029 248.488C115.938 248.488 125.592 238.834 125.592 226.925C125.592 215.016 115.938 205.362 104.029 205.362C92.1202 205.362 82.4661 215.016 82.4661 226.925C82.4661 238.834 92.1202 248.488 104.029 248.488Z" fill="#9CB4E2"/>
</g>
<path d="M98.7282 243.187C110.637 243.187 120.291 233.533 120.291 221.624C120.291 209.715 110.637 200.061 98.7282 200.061C86.8192 200.061 77.1652 209.715 77.1652 221.624C77.1652 233.533 86.8192 243.187 98.7282 243.187Z" fill="#8B69D2"/>
<path d="M107.811 220.828L95.2382 213.569C94.4852 213.134 93.5432 213.678 93.5432 214.548V229.067C93.5432 229.937 94.4852 230.481 95.2382 230.046L107.811 222.787C108.565 222.35 108.565 221.263 107.811 220.828Z" fill="#FEFEFE"/>
<path d="M66.0171 274.772C72.1489 269.131 72.546 259.586 66.9042 253.454C61.2624 247.323 51.718 246.925 45.5863 252.567C39.4545 258.209 39.0574 267.753 44.6992 273.885C50.341 280.017 59.8854 280.414 66.0171 274.772Z" fill="url(#paint3_linear_124_33)"/>
<path d="M46.8851 263.139L53.5081 269.49L63.7441 257.81" stroke="#FEFEFE" stroke-width="2" stroke-miterlimit="10" stroke-linecap="round" stroke-linejoin="round"/>
<defs>
<filter id="filter0_b_124_33" x="-137.8" y="-151.8" width="677.6" height="617.6" filterUnits="userSpaceOnUse" color-interpolation-filters="sRGB">
<feFlood flood-opacity="0" result="BackgroundImageFix"/>
<feGaussianBlur in="BackgroundImageFix" stdDeviation="78.4"/>
<feComposite in2="SourceAlpha" operator="in" result="effect1_backgroundBlur_124_33"/>
<feBlend mode="normal" in="SourceGraphic" in2="effect1_backgroundBlur_124_33" result="shape"/>
</filter>
<filter id="filter1_b_124_33" x="14.871" y="53.3728" width="372.185" height="295.012" filterUnits="userSpaceOnUse" color-interpolation-filters="sRGB">
<feFlood flood-opacity="0" result="BackgroundImageFix"/>
<feGaussianBlur in="BackgroundImageFix" stdDeviation="40.35"/>
<feComposite in2="SourceAlpha" operator="in" result="effect1_backgroundBlur_124_33"/>
<feBlend mode="normal" in="SourceGraphic" in2="effect1_backgroundBlur_124_33" result="shape"/>
</filter>
<filter id="filter2_d_124_33" x="318.754" y="186" width="45.274" height="38.9436" filterUnits="userSpaceOnUse" color-interpolation-filters="sRGB">
<feFlood flood-opacity="0" result="BackgroundImageFix"/>
<feColorMatrix in="SourceAlpha" type="matrix" values="0 0 0 0 0 0 0 0 0 0 0 0 0 0 0 0 0 0 127 0" result="hardAlpha"/>
<feOffset dx="2" dy="2"/>
<feComposite in2="hardAlpha" operator="out"/>
<feColorMatrix type="matrix" values="0 0 0 0 0 0 0 0 0 0 0 0 0 0 0 0 0 0 0.25 0"/>
<feBlend mode="normal" in2="BackgroundImageFix" result="effect1_dropShadow_124_33"/>
<feBlend mode="normal" in="SourceGraphic" in2="effect1_dropShadow_124_33" result="shape"/>
</filter>
<filter id="filter3_d_124_33" x="290" y="225.162" width="45.274" height="38.9436" filterUnits="userSpaceOnUse" color-interpolation-filters="sRGB">
<feFlood flood-opacity="0" result="BackgroundImageFix"/>
<feColorMatrix in="SourceAlpha" type="matrix" values="0 0 0 0 0 0 0 0 0 0 0 0 0 0 0 0 0 0 127 0" result="hardAlpha"/>
<feOffset dx="2" dy="2"/>
<feComposite in2="hardAlpha" operator="out"/>
<feColorMatrix type="matrix" values="0 0 0 0 0 0 0 0 0 0 0 0 0 0 0 0 0 0 0.25 0"/>
<feBlend mode="normal" in2="BackgroundImageFix" result="effect1_dropShadow_124_33"/>
<feBlend mode="normal" in="SourceGraphic" in2="effect1_dropShadow_124_33" result="shape"/>
</filter>
<radialGradient id="paint0_radial_124_33" cx="0" cy="0" r="1" gradientUnits="userSpaceOnUse" gradientTransform="translate(201 187) rotate(90) scale(182 182)">
<stop offset="0.465" stop-color="#0DE5CB"/>
<stop offset="0.62" stop-color="#0CA9E2"/>
<stop offset="0.92" stop-color="#1C1D2C" stop-opacity="0"/>
</radialGradient>
<linearGradient id="paint1_linear_124_33" x1="200.964" y1="134.073" x2="200.964" y2="267.685" gradientUnits="userSpaceOnUse">
<stop stop-color="#3A57AB"/>
<stop offset="1" stop-color="#F4F4F4"/>
</linearGradient>
<linearGradient id="paint2_linear_124_33" x1="288" y1="122.21" x2="378.55" y2="122.21" gradientUnits="userSpaceOnUse">
<stop stop-color="#0B81F2"/>
<stop offset="1" stop-color="#0DF7C4"/>
</linearGradient>
<linearGradient id="paint3_linear_124_33" x1="41" y1="264" x2="69.5" y2="264" gradientUnits="userSpaceOnUse">
<stop stop-color="#0B84F1"/>
<stop offset="1" stop-color="#0DF1C6"/>
</linearGradient>
</defs>
</svg>
