<svg width="96" height="58" viewBox="0 0 96 58" fill="none" xmlns="http://www.w3.org/2000/svg">
<path opacity="0.63" d="M0 0H96V58H0V0Z" fill="url(#paint0_linear_43_4)" fill-opacity="0.34"/>
<mask id="path-2-outside-1_43_4" maskUnits="userSpaceOnUse" x="23" y="5" width="52" height="53" fill="black">
<rect fill="white" x="23" y="5" width="52" height="53"/>
<path d="M26 11C26 9.34315 27.3431 8 29 8H69C70.6569 8 72 9.34315 72 11V58H26V11Z"/>
</mask>
<path d="M26 11C26 9.34315 27.3431 8 29 8H69C70.6569 8 72 9.34315 72 11V58H26V11Z" fill="white"/>
<path d="M23 11C23 7.68629 25.6863 5 29 5H69C72.3137 5 75 7.68629 75 11H69H29H23ZM72 58H26H72ZM23 58V11C23 7.68629 25.6863 5 29 5V11V58H23ZM69 5C72.3137 5 75 7.68629 75 11V58H69V11V5Z" fill="#136EA6" fill-opacity="0.18" mask="url(#path-2-outside-1_43_4)"/>
<circle cx="49.5" cy="19.5" r="5.5" fill="#061015" fill-opacity="0.65"/>
<rect x="33" y="29" width="31" height="4" fill="#597789" fill-opacity="0.51"/>
<rect width="27" height="1" transform="matrix(1 0 0 -1 35 38)" fill="#597789" fill-opacity="0.51"/>
<rect width="29" height="1" transform="matrix(1 0 0 -1 34 40)" fill="#597789" fill-opacity="0.51"/>
<rect width="31" height="1" transform="matrix(1 0 0 -1 33 42)" fill="#597789" fill-opacity="0.51"/>
<path d="M53.5589 52.6026C53.7402 52.7421 54.1197 52.971 54.3243 52.79C54.9014 52.2795 55.1429 51.4663 55.4285 50.7809C55.7329 50.0504 56.1948 50.8783 56.5965 51.1556C57.1053 51.5068 57.2205 51.2794 57.7446 51.3031C58.3903 51.3323 58.8639 51.8363 59.5305 51.606C60.2985 51.3407 60.7044 51.5024 61.4838 51.8372C62.2137 52.1509 62.906 52.5198 63.6046 52.8897" stroke="#AABAC3" stroke-linecap="round"/>
<path d="M17.3094 19.7876L31.9333 18.0109L34.2568 36.4488L26.0408 30.3815L19.6329 38.2255L17.3094 19.7876Z" fill="#978AF0"/>
<path d="M24.6184 18.8999L26.0383 30.3852L26.0412 30.3818L34.2572 36.449L31.9337 18.0111L24.6184 18.8999Z" fill="#7C73BB"/>
<path d="M17.8767 24.2891L17.971 25.0374L19.3849 27.0077L21.5022 26.4571L23.8138 28.0361L25.596 26.8075L25.5121 26.1288L24.0419 27.142C23.8735 27.258 23.651 27.2586 23.4821 27.1432L21.4631 25.764L19.6612 26.2324C19.4633 26.284 19.254 26.2083 19.1347 26.0422L17.8767 24.2891Z" fill="black" fill-opacity="0.42"/>
<path d="M20.7209 1.82902C20.5883 1.84914 20.4694 1.92229 20.3916 2.03162L19.3123 3.54866L16.8793 3.78995C16.6756 3.81016 16.5055 3.95361 16.4511 4.15083L15.9558 5.94544L13.752 7.00445C13.5676 7.09303 13.4568 7.28593 13.473 7.48991L13.6214 9.34578L11.9126 11.0947C11.7697 11.241 11.7315 11.4602 11.8166 11.6462L12.5908 13.3392L11.5833 15.567C11.499 15.7535 11.538 15.9726 11.6816 16.1183L12.9882 17.4445L12.8034 19.8826C12.7879 20.0865 12.8996 20.2791 13.0843 20.3669L14.7658 21.1662L15.426 23.5205C15.4812 23.7175 15.652 23.8601 15.8557 23.8795L17.709 24.0556L19.1346 26.0421C19.2539 26.2083 19.4632 26.2839 19.6612 26.2324L21.463 25.7639L23.482 27.1431C23.6509 27.2584 23.8734 27.258 24.0418 27.142L25.5749 26.0853L27.9437 26.6907C28.142 26.7414 28.3509 26.6649 28.4696 26.4982L29.5487 24.9811L31.982 24.7398C32.1855 24.7195 32.3556 24.5762 32.41 24.379L32.9053 22.5844L35.1091 21.5253C35.2935 21.4368 35.4043 21.2439 35.3881 21.0399L35.2396 19.184L36.9484 17.4351C37.0914 17.2888 37.1295 17.0696 37.0445 16.8836L36.2702 15.1905L37.2779 12.9626C37.3621 12.7762 37.3231 12.5571 37.1795 12.4114L35.8729 11.0853L36.0577 8.64723C36.0732 8.44325 35.9615 8.25071 35.7768 8.16285L34.0953 7.36359L33.4352 5.00929C33.38 4.81231 33.2092 4.66965 33.0056 4.65026L31.1521 4.4742L29.7265 2.48768C29.6073 2.32152 29.398 2.24578 29.2001 2.29726L27.3981 2.76588L25.3791 1.38668C25.2828 1.32087 25.1662 1.29128 25.0502 1.30296C24.9672 1.31137 24.8878 1.34052 24.8192 1.38783L23.2864 2.44442L20.9173 1.83893C20.8531 1.82248 20.7863 1.81911 20.7209 1.82902Z" fill="#978AF0"/>
<path d="M23.2867 4.8498C18.0948 5.48059 14.385 10.2165 15.0158 15.4084C15.6466 20.6003 20.3825 24.3101 25.5744 23.6793C30.7663 23.0485 34.4761 18.3126 33.8453 13.1207C33.2145 7.92883 28.4786 4.21901 23.2867 4.8498Z" fill="#8237CC"/>
<path d="M23.4458 6.15983C27.9298 5.61505 31.9906 8.79606 32.5354 13.28C33.0801 17.7639 29.8992 21.8248 25.4152 22.3696C20.9313 22.9144 16.8705 19.7334 16.3257 15.2494C15.7809 10.7655 18.9618 6.70461 23.4458 6.15983Z" fill="#48436C"/>
<path d="M23.4446 6.14929C18.9627 6.69389 15.7708 10.7686 16.3153 15.2506C16.8599 19.7325 20.9346 22.9244 25.4165 22.38C29.8985 21.8353 33.0904 17.7606 32.5458 13.2787C32.0013 8.79668 27.9265 5.60483 23.4446 6.14929ZM23.5003 6.60799C27.729 6.09407 31.5738 9.10557 32.0878 13.3343C32.6017 17.5631 29.5901 21.4079 25.3613 21.9218C25.3612 21.9218 25.361 21.9218 25.3609 21.9218C21.1321 22.4354 17.2875 19.4236 16.7739 15.1949C16.2603 10.9662 19.2717 7.1219 23.5003 6.60799Z" fill="#1D1A33" fill-opacity="0.69"/>
<path d="M32.6339 23.5676L32.41 24.3789C32.3556 24.5761 32.1855 24.7195 31.9819 24.7398L29.5487 24.9811L28.4696 26.4981C28.351 26.6648 28.142 26.7414 27.9437 26.6907L25.5748 26.0853L25.512 26.1287L25.5959 26.8074L25.6148 26.7943L28.3271 27.4875L29.5951 25.7048L32.3808 25.4285L32.7154 24.2157L32.6339 23.5676Z" fill="black" fill-opacity="0.42"/>
<defs>
<linearGradient id="paint0_linear_43_4" x1="119" y1="29" x2="0" y2="29" gradientUnits="userSpaceOnUse">
<stop stop-color="#0DEEC7"/>
<stop offset="1" stop-color="#0B8AEF"/>
</linearGradient>
</defs>
</svg>
