<svg width="96" height="58" viewBox="0 0 96 58" fill="none" xmlns="http://www.w3.org/2000/svg">
<path opacity="0.63" d="M0 0H96V58H0V0Z" fill="url(#paint0_linear_43_50)" fill-opacity="0.34"/>
<mask id="mask0_43_50" style="mask-type:alpha" maskUnits="userSpaceOnUse" x="0" y="0" width="96" height="58">
<path d="M0 0H96V58H0V0Z" fill="url(#paint1_linear_43_50)"/>
</mask>
<g mask="url(#mask0_43_50)">
<path d="M-2.56254 64.7386C-2.73952 64.5307 -2.88458 64.27 -2.94495 63.9884L-12.9185 19.9225C-12.97 19.6985 -12.9767 19.4666 -12.9384 19.24C-12.9 19.0134 -12.8173 18.7966 -12.695 18.602C-12.5727 18.4075 -12.4131 18.239 -12.2255 18.1063C-12.0379 17.9735 -11.8259 17.8791 -11.6017 17.8285L71.5147 -0.999925C71.8277 -1.0716 72.1545 -1.05523 72.4588 -0.952608C72.7632 -0.84999 73.0331 -0.665141 73.2389 -0.418527C73.4158 -0.210596 73.5609 0.0501114 73.6213 0.331678L83.5948 44.3976C83.8094 45.3418 83.2223 46.2769 82.278 46.4915L-0.850986 65.3051C-1.16081 65.3761 -1.48414 65.3608 -1.78588 65.2609C-2.08761 65.161 -2.35622 64.9804 -2.56254 64.7386Z" fill="#AABAC3"/>
<path d="M71.9018 0.71944L81.8753 44.7853L-1.22625 63.6012L-11.2146 19.5479L71.9018 0.71944ZM74.5603 -1.54332C74.3328 -1.81066 74.0607 -2.04007 73.7715 -2.22935C72.9947 -2.72073 72.0391 -2.88059 71.1372 -2.67641L-11.9918 16.1372C-12.4402 16.2384 -12.8641 16.4272 -13.2394 16.6926C-13.6146 16.9581 -13.9337 17.2951 -14.1784 17.6842C-14.4231 18.0733 -14.5885 18.5069 -14.6652 18.9601C-14.7419 19.4133 -14.7283 19.8772 -14.6253 20.3251L-4.65181 64.391C-4.53107 64.9541 -4.26624 65.4458 -3.89964 65.8766C-3.6721 66.1439 -3.4 66.3733 -3.11084 66.5626C-2.33406 67.054 -1.37844 67.2138 -0.476539 67.0097L82.6673 48.1834C83.568 47.9764 84.3496 47.4205 84.8406 46.6376C85.3316 45.8547 85.4918 44.909 85.286 44.0081L75.3125 -0.05777C75.1895 -0.593409 74.9269 -1.11261 74.5603 -1.54332Z" fill="#424A4F"/>
<path d="M-2.21141 64.158C-2.33782 64.0095 -2.43453 63.8356 -2.50374 63.6641L-21.6908 14.9417C-21.7754 14.7278 -21.817 14.4993 -21.8133 14.2693C-21.8095 14.0393 -21.7605 13.8123 -21.669 13.6012C-21.5775 13.3902 -21.4453 13.1992 -21.28 13.0392C-21.1147 12.8793 -20.9195 12.7534 -20.7056 12.6689L71.2102 -23.535C71.924 -23.8096 72.7103 -23.608 73.1906 -23.0436C73.3171 -22.8951 73.4011 -22.7362 73.483 -22.5497L92.6701 26.1726C92.8294 26.6005 92.8319 27.0849 92.6464 27.4989C92.4609 27.9129 92.1149 28.2586 91.687 28.4179L-0.230932 64.6493C-0.658809 64.8086 -1.14326 64.8111 -1.55724 64.6257C-1.82554 64.5211 -2.03443 64.3659 -2.21141 64.158Z" fill="white"/>
<path d="M71.8516 -21.8778L91.0387 26.8445L-0.874865 63.0209L-20.0619 14.2986L71.8516 -21.8778ZM74.5101 -24.1406C74.1688 -24.5416 73.7384 -24.8668 73.2441 -25.0864C72.392 -25.4546 71.4292 -25.4724 70.564 -25.1359L-21.3369 11.0553C-23.1375 11.7683 -24.0055 13.7877 -23.3052 15.5735L-4.11808 64.2958C-3.96701 64.6538 -3.78623 64.9866 -3.53341 65.2836C-3.1921 65.6847 -2.76167 66.0098 -2.26742 66.2294C-1.41195 66.6026 -0.457903 66.6101 0.412703 66.2789L92.3285 30.075C94.1291 29.362 94.9971 27.3427 94.2967 25.5569L75.1097 -23.1654C74.9586 -23.5234 74.7503 -23.8584 74.5101 -24.1406Z" fill="#424A4F"/>
<path d="M79.9594 31.7919C79.833 31.6434 79.7363 31.4696 79.6671 31.298C78.4819 28.2813 78.542 24.9176 79.8342 21.9452C81.1264 18.9727 83.545 16.6344 86.5594 15.4433C87.2733 15.1686 88.0595 15.3702 88.5399 15.9346C88.6663 16.0831 88.7503 16.2421 88.8322 16.4285L92.6696 26.173C93.0261 27.0733 92.5847 28.0893 91.6844 28.4458L81.9399 32.2832C81.512 32.4425 81.0276 32.445 80.6136 32.2596C80.3453 32.155 80.1364 31.9998 79.9594 31.7919Z" fill="white"/>
<path d="M87.1889 17.0846L91.0263 26.8291L81.2819 30.6665C80.2696 28.0817 80.3229 25.2011 81.4301 22.6555C82.5372 20.1099 84.608 18.1067 87.1889 17.0846ZM89.8475 14.8219C89.5061 14.4209 89.0757 14.0957 88.5815 13.8761C87.7294 13.5078 86.7665 13.49 85.9014 13.8266C78.7434 16.6406 75.212 24.7686 78.026 31.9266C78.1622 32.2973 78.3705 32.6322 78.6107 32.9144C79.5461 34.0135 81.1291 34.459 82.5442 33.8949L92.2886 30.0574C93.1466 29.7114 93.8364 29.0474 94.2096 28.1919C94.5778 27.3398 94.5956 26.3769 94.2591 25.5118L90.447 15.7971C90.3085 15.4539 90.1003 15.1189 89.8475 14.8219Z" fill="#424A4F"/>
<path d="M-2.21187 64.1588C-2.33828 64.0103 -2.42235 63.8513 -2.5042 63.6649L-6.34161 53.9204C-6.5009 53.4925 -6.50345 53.0081 -6.31796 52.5941C-6.13248 52.1801 -5.78646 51.8344 -5.35858 51.6751C-2.98982 50.743 -0.389376 50.5728 2.08069 51.188C4.55076 51.8033 6.76751 53.1735 8.42229 55.1078C9.29453 56.1326 10.0034 57.2964 10.4961 58.5674C10.6554 58.9953 10.6579 59.4797 10.4725 59.8937C10.287 60.3077 9.94095 60.6534 9.51308 60.8127L-0.23139 64.6501C-0.571579 64.7845 -0.945229 64.8094 -1.30025 64.7214C-1.65526 64.6333 -1.97395 64.4366 -2.21187 64.1588Z" fill="white"/>
<path d="M7.10048 56.2322C7.83366 57.0936 8.44581 58.0837 8.88196 59.1979L-0.86251 63.0353L-4.69992 53.2908C-2.67211 52.4879 -0.443825 52.3397 1.67243 52.8672C3.78869 53.3947 5.68678 54.5714 7.10048 56.2322ZM9.75901 53.9694C7.87172 51.7544 5.33959 50.1842 2.51643 49.4784C-0.306729 48.7726 -3.27985 48.9665 -5.98749 50.0328C-7.78811 50.7458 -8.65613 52.7652 -7.95577 54.5509L-4.11836 64.2954C-3.96729 64.6534 -3.78651 64.9862 -3.53369 65.2832C-3.19238 65.6842 -2.76196 66.0094 -2.2677 66.229C-1.41224 66.6022 -0.458186 66.6097 0.41242 66.2785L10.1569 62.4411C11.9575 61.7281 12.8255 59.7087 12.1252 57.923C11.5506 56.4655 10.7577 55.1427 9.75901 53.9694Z" fill="#424A4F"/>
<path d="M13.3787 39.4152C11.3055 36.9794 9.65867 34.232 8.47603 31.2176C8.40903 31.0185 8.30189 30.8024 8.23931 30.5483C6.14991 24.8728 5.88964 18.6855 7.495 12.8546C9.10037 7.02361 12.4908 1.84149 17.1908 -1.96483C17.3096 -2.06596 17.4685 -2.15003 17.5978 -2.20881L33.0576 -8.29836C33.2143 -8.35493 33.3689 -8.38402 33.536 -8.39824C42.677 -9.03283 51.682 -5.22331 57.6233 1.75722C59.6965 4.19297 61.3433 6.94034 62.5133 9.9399C66.4095 19.8136 64.5957 31.0129 57.7979 39.155C56.6019 40.6084 55.2623 41.9534 53.8112 43.1372C53.6924 43.2383 53.5483 43.3098 53.4042 43.3812L37.9444 49.4707C37.7877 49.5273 37.6332 49.5564 37.466 49.5706C28.3272 50.1777 19.32 46.3957 13.3787 39.4152Z" fill="white"/>
<path d="M56.4078 2.76638C58.3166 5.00906 59.8921 7.61232 61.0434 10.4997C64.8473 20.1446 62.8116 30.662 56.5811 38.1163C55.4615 39.479 54.1962 40.7608 52.8194 41.8815L37.3596 47.971C33.0791 48.259 28.7905 47.5428 24.8359 45.8795C20.8812 44.2163 17.3699 41.6521 14.5819 38.3913C12.6731 36.1486 11.0976 33.5454 9.93363 30.6431C9.85177 30.4567 9.78477 30.2576 9.73262 30.0459C9.71998 30.031 9.72219 30.0035 9.72219 30.0035C5.59177 18.7413 9.30478 6.46334 18.1851 -0.736438L33.6449 -6.82599C42.2993 -7.43054 50.7952 -3.82799 56.4078 2.76638ZM58.8287 0.705873C52.5587 -6.66081 43.0573 -10.6624 33.417 -10.0127C33.0975 -9.99685 32.7736 -9.92606 32.4727 -9.79806L17.0129 -3.7085C16.7121 -3.58051 16.4365 -3.42281 16.1714 -3.22276C11.2263 0.790197 7.65752 6.24706 5.96332 12.3861C4.26912 18.5251 4.53402 25.04 6.72104 31.0212L6.97862 31.7752C8.21784 34.9464 9.96361 37.84 12.1505 40.4095C18.4205 47.7761 27.9093 51.7629 37.5496 51.1132C37.8691 51.0973 38.193 51.0265 38.4939 50.8986L53.9537 44.809C54.2545 44.681 54.5301 44.5233 54.7952 44.3233C56.3332 43.0911 57.7492 41.6553 59.0217 40.1113C62.5377 35.8955 64.8532 30.8104 65.7248 25.3905C66.5965 19.9707 65.9922 14.416 63.9753 9.31043C62.7466 6.18162 61.0156 3.2753 58.8287 0.705873Z" fill="#424A4F"/>
<path d="M52.8192 41.882L37.3594 47.9715C25.7427 48.7667 14.4526 42.0617 9.94829 30.631C9.86644 30.4445 9.79943 30.2455 9.74728 30.0337C9.73464 30.0189 9.73686 29.9914 9.73686 29.9914C8.99667 19.5828 14.9892 9.41138 25.2187 5.39161C37.8209 0.428123 52.0575 6.62304 57.0232 19.1977C58.2184 22.2175 58.7986 25.4454 58.7299 28.6924C58.6612 31.9393 57.945 35.1399 56.6232 38.1064C55.4821 39.4866 54.208 40.7512 52.8192 41.882Z" fill="#AADBE8"/>
<path d="M37.7251 9.19172C35.5326 8.2406 33.8606 7.87093 31.4456 8.82507C28.7447 9.89456 27.6741 12.368 28.6744 14.8974C31.2473 21.441 42.5904 14.7575 46.2663 24.1016C47.8747 28.1879 46.3807 31.9694 42.557 34.0969L44.2472 38.3697L41.9043 39.2881L40.2394 35.045C37.351 35.8643 34.0838 35.5462 31.6564 34.59L32.307 31.8337C34.6986 32.7178 37.4028 33.1567 40.1037 32.0872C43.419 30.7765 44.3922 28.3091 43.2892 25.5086C40.4186 18.1939 28.9936 24.691 25.6638 16.2048C24.1686 12.432 25.6455 8.69067 29.0836 6.71197L27.3934 2.4392L29.7363 1.52078L31.4012 5.76384C34.2472 4.95505 36.5362 5.56803 38.6671 6.5972L37.7251 9.19172Z" fill="#31383D"/>
</g>
<defs>
<linearGradient id="paint0_linear_43_50" x1="119" y1="29" x2="0" y2="29" gradientUnits="userSpaceOnUse">
<stop stop-color="#0DEEC7"/>
<stop offset="1" stop-color="#0B8AEF"/>
</linearGradient>
<linearGradient id="paint1_linear_43_50" x1="119" y1="29" x2="0" y2="29" gradientUnits="userSpaceOnUse">
<stop stop-color="#0DEEC7"/>
<stop offset="1" stop-color="#0B8AEF"/>
</linearGradient>
</defs>
</svg>
