<svg width="22" height="22" viewBox="0 0 22 22" fill="none" xmlns="http://www.w3.org/2000/svg">
<g filter="url(#filter0_b_44_76)">
<rect width="22" height="22" rx="4" fill="#C2FFF3"/>
</g>
<path d="M18.7143 13.4529L17.6112 13.2924C17.5421 13.2871 17.4825 13.2437 17.4561 13.1797L17.0984 12.3166C17.0717 12.2529 17.0828 12.1798 17.1281 12.1274L17.7881 11.2408C17.8929 11.1179 17.886 10.9348 17.7716 10.8204L17.2493 10.2984C17.1352 10.184 16.9518 10.1766 16.8292 10.2819L15.9424 10.9416C15.8902 10.9867 15.8166 10.9983 15.7531 10.9718L14.8898 10.6139C14.826 10.5877 14.7823 10.5271 14.7767 10.4588L14.6168 9.35595C14.6041 9.19448 14.4697 9.07007 14.3082 9.07007H13.5696C13.4079 9.07007 13.2734 9.19448 13.2609 9.35595L13.1005 10.4588C13.0955 10.5277 13.0518 10.5877 12.988 10.6139L12.1245 10.9718C12.0606 10.9983 11.9876 10.9867 11.9349 10.9416L11.0486 10.2819C10.926 10.1768 10.7428 10.184 10.6282 10.2984L10.1062 10.8204C9.99181 10.9348 9.98493 11.1179 10.0897 11.2408L10.7494 12.1276C10.7942 12.1798 10.8061 12.2531 10.7794 12.3166L10.4217 13.1797C10.3958 13.2437 10.3354 13.2871 10.2669 13.2927L9.16323 13.4529C9.00227 13.4656 8.87785 13.6001 8.87785 13.7618V14.5002C8.87785 14.6616 9.0023 14.7967 9.16323 14.8088L10.2669 14.969C10.3354 14.9746 10.3958 15.0182 10.4217 15.082L10.7794 15.9451C10.8061 16.0091 10.7942 16.0825 10.7494 16.1346L10.0897 17.0215C9.9849 17.1443 9.99178 17.3269 10.1062 17.4419L10.6282 17.9639C10.7428 18.0783 10.926 18.0851 11.0486 17.98L11.9349 17.3201C11.9876 17.2756 12.0606 17.2637 12.1245 17.2904L12.988 17.6478C13.0518 17.6746 13.0955 17.7344 13.1008 17.8035L13.261 18.9063C13.2737 19.0675 13.4079 19.1922 13.5696 19.1922H14.3082C14.47 19.1922 14.6042 19.0675 14.6169 18.9063L14.7768 17.8035C14.7824 17.7344 14.826 17.6746 14.8898 17.6478L15.7534 17.2904C15.8169 17.2637 15.8905 17.2756 15.9426 17.3201L16.8293 17.98C16.9518 18.0851 17.1353 18.0783 17.2494 17.9639L17.7717 17.4419C17.8863 17.3269 17.8929 17.1443 17.7881 17.0215L17.1281 16.1346C17.0836 16.0825 17.0717 16.0091 17.0984 15.9451L17.4561 15.082C17.4826 15.0182 17.5421 14.9746 17.6112 14.969L18.7144 14.8088C18.8756 14.7967 19 14.6616 19 14.5002V13.7618C19 13.6001 18.8756 13.4656 18.7143 13.4529ZM15.1524 15.3446C14.8281 15.6684 14.3974 15.8469 13.9389 15.8469C13.4806 15.8469 13.0494 15.6684 12.7253 15.3446C12.4013 15.0201 12.2226 14.5894 12.2226 14.1309C12.2226 13.6726 12.4013 13.2416 12.7253 12.9176C13.0494 12.593 13.4806 12.4151 13.9389 12.4151C14.3974 12.4151 14.8281 12.593 15.1524 12.9176C15.4764 13.2416 15.6548 13.6726 15.6548 14.1309C15.6548 14.5894 15.4764 15.0201 15.1524 15.3446Z" fill="#0DEEC7"/>
<path d="M9.46307 11.4824C9.5827 11.4395 9.64863 11.3119 9.61505 11.1896L9.44004 10.3334C9.42604 10.281 9.44218 10.2252 9.48215 10.1886L10.024 9.69546C10.0637 9.6592 10.1215 9.64834 10.1715 9.66739L11.0012 9.91859C11.1195 9.96334 11.2529 9.90987 11.307 9.79498L11.5531 9.2711C11.6076 9.15594 11.564 9.01933 11.4539 8.95685L10.7317 8.47795C10.6848 8.45094 10.6565 8.39985 10.6594 8.34585L10.6938 7.61415C10.6967 7.55988 10.729 7.51196 10.778 7.4897L11.5497 7.07804C11.6654 7.02641 11.7213 6.89354 11.6784 6.77494L11.4825 6.22985C11.4393 6.11045 11.3117 6.04428 11.1894 6.0779L10.333 6.25234C10.2806 6.26717 10.2252 6.25076 10.1885 6.2105L9.69551 5.66893C9.65872 5.62867 9.64762 5.57206 9.66718 5.52123L9.91844 4.69208C9.96315 4.57322 9.90971 4.44005 9.79456 4.38629L9.27091 4.13984C9.15603 4.0858 9.01888 4.12898 8.95616 4.23936L8.47752 4.96156C8.45076 5.00844 8.3997 5.03672 8.34566 5.03411L7.61396 4.99942C7.55996 4.99705 7.51124 4.96367 7.48928 4.91495L7.07815 4.14355C7.02599 4.02789 6.89362 3.97198 6.77449 4.01489L6.22969 4.21105C6.11029 4.25395 6.04413 4.3813 6.07801 4.50358L6.25272 5.36026C6.26702 5.41213 6.25088 5.46826 6.21064 5.50452L5.66872 5.99796C5.62849 6.03422 5.57157 6.04535 5.52075 6.0263L4.6916 5.7748C4.57327 5.72982 4.44011 5.78382 4.38584 5.89868L4.13962 6.42236C4.08562 6.53724 4.12876 6.67439 4.2389 6.73685L4.96108 7.21574C5.0082 7.24251 5.03627 7.29334 5.03336 7.34734L4.99894 8.07904C4.99684 8.13358 4.96372 8.18123 4.91476 8.20345L4.14306 8.61509C4.02734 8.66698 3.9715 8.79962 4.01441 8.91821L4.21057 9.46328C4.25344 9.58268 4.38106 9.64885 4.5031 9.61553L5.36005 9.44029C5.41194 9.42598 5.46805 9.44239 5.50431 9.48263L5.99721 10.0243C6.03401 10.0645 6.04463 10.1217 6.02552 10.1723L5.77432 11.0014C5.72984 11.12 5.78334 11.2532 5.8982 11.3072L6.42184 11.5534C6.537 11.6076 6.67385 11.5639 6.7366 11.4541L7.21497 10.7316C7.24197 10.685 7.2928 10.6564 7.34707 10.6596L8.0788 10.694C8.13307 10.6967 8.18125 10.729 8.20374 10.7784L8.61461 11.5496C8.66704 11.6653 8.79914 11.7217 8.91824 11.6788L9.46307 11.4824ZM8.30225 9.1128C7.96418 9.23431 7.59862 9.21736 7.27324 9.06435C6.94789 8.91133 6.70221 8.64078 6.58017 8.30244C6.45867 7.96412 6.47561 7.59881 6.62866 7.27372C6.78164 6.94811 7.05246 6.70243 7.39053 6.58068C7.72885 6.45888 8.09417 6.47582 8.41925 6.62937C8.74433 6.78186 8.99055 7.05243 9.11256 7.39075C9.23409 7.72909 9.21688 8.09414 9.06413 8.41952C8.91058 8.74458 8.64027 8.99076 8.30225 9.1128Z" fill="#0DEEC7"/>
<defs>
<filter id="filter0_b_44_76" x="-46.2" y="-46.2" width="114.4" height="114.4" filterUnits="userSpaceOnUse" color-interpolation-filters="sRGB">
<feFlood flood-opacity="0" result="BackgroundImageFix"/>
<feGaussianBlur in="BackgroundImageFix" stdDeviation="23.1"/>
<feComposite in2="SourceAlpha" operator="in" result="effect1_backgroundBlur_44_76"/>
<feBlend mode="normal" in="SourceGraphic" in2="effect1_backgroundBlur_44_76" result="shape"/>
</filter>
</defs>
</svg>
