<svg width="117" height="36" viewBox="0 0 117 36" fill="none" xmlns="http://www.w3.org/2000/svg">
<path d="M22.9414 23.4284C23.1394 23.6255 23.1381 23.9475 22.9299 24.1339C21.8147 25.132 20.5202 25.9279 19.0464 26.5215C17.4058 27.1823 15.6227 27.5127 13.6973 27.5127C11.749 27.5127 9.95459 27.1823 8.31396 26.5215C6.67334 25.8493 5.24349 24.915 4.02441 23.7188C2.81673 22.5111 1.87679 21.0983 1.20459 19.4805C0.532389 17.8626 0.196289 16.0967 0.196289 14.1826C0.196289 12.2686 0.532389 10.5026 1.20459 8.88477C1.87679 7.25553 2.81673 5.84277 4.02441 4.64648C5.24349 3.4502 6.67334 2.52165 8.31396 1.86084C9.95459 1.18864 11.749 0.852539 13.6973 0.852539C15.6113 0.852539 17.383 1.18294 19.0122 1.84375C20.4883 2.43829 21.7846 3.24034 22.901 4.2499C23.1068 4.43607 23.1081 4.75546 22.9123 4.95218L19.9839 7.89413C19.7749 8.10411 19.4311 8.08616 19.2278 7.87071C18.5839 7.18861 17.8284 6.63795 16.9614 6.21875C15.936 5.70605 14.8195 5.44971 13.6118 5.44971C12.4611 5.44971 11.3958 5.67188 10.416 6.11621C9.44759 6.54915 8.5988 7.16439 7.86963 7.96191C7.14046 8.74805 6.5765 9.6709 6.17773 10.7305C5.77897 11.79 5.57959 12.9351 5.57959 14.1655C5.57959 15.4188 5.77897 16.5752 6.17773 17.6348C6.5765 18.6943 7.14046 19.6229 7.86963 20.4204C8.5988 21.2065 9.44759 21.8218 10.416 22.2661C11.3958 22.6991 12.4611 22.9155 13.6118 22.9155C14.8195 22.9155 15.936 22.6649 16.9614 22.1636C17.8197 21.7345 18.5702 21.1776 19.2129 20.4931C19.4151 20.2778 19.7575 20.2591 19.9668 20.4675L22.9414 23.4284Z" fill="white"/>
<path d="M40.1361 24.7132C40.2312 24.9303 40.1612 25.1852 39.9639 25.3166C37.9362 26.6667 35.7295 27.3418 33.3438 27.3418C31.4753 27.3418 29.7948 26.943 28.3022 26.1455C26.8211 25.3366 25.6476 24.2428 24.7817 22.8643C23.9272 21.4857 23.5 19.9305 23.5 18.1987C23.5 16.5467 23.8874 15.0713 24.6621 13.7725C25.4482 12.4736 26.5135 11.4482 27.8579 10.6963C29.2023 9.94434 30.729 9.56836 32.438 9.56836C34.2039 9.56836 35.7591 9.98421 37.1035 10.8159C38.4479 11.6362 39.4961 12.7869 40.248 14.2681C41 15.7378 41.376 17.4411 41.376 19.3779V19.4248C41.376 19.7009 41.1521 19.9248 40.876 19.9248H29.4561C29.1202 19.9248 28.8799 20.2506 29.0222 20.5549C29.2181 20.9736 29.4737 21.3561 29.7891 21.7021C30.2562 22.2035 30.8372 22.6022 31.5322 22.8984C32.2272 23.1947 33.0247 23.3428 33.9248 23.3428C35.4701 23.3428 36.9213 22.8996 38.2786 22.0132C38.5485 21.8369 38.9192 21.9337 39.0485 22.229L40.1361 24.7132ZM28.6684 16.8653C28.5941 17.1599 28.83 17.4297 29.1338 17.4297H36.2819C36.5822 17.4297 36.8173 17.1656 36.7479 16.8734C36.6257 16.3593 36.4252 15.8953 36.1465 15.4814C35.7819 14.9118 35.2977 14.4674 34.6938 14.1484C34.1014 13.8294 33.4349 13.6699 32.6943 13.6699C31.9424 13.6699 31.2702 13.8351 30.6777 14.1655C30.0967 14.4959 29.6239 14.9403 29.2593 15.4985C28.9918 15.9081 28.7948 16.3637 28.6684 16.8653Z" fill="white"/>
<path d="M48.9048 26.5C48.9048 26.7761 48.6809 27 48.4048 27H44.5C44.2239 27 44 26.7761 44 26.5V10.4102C44 10.134 44.2239 9.91016 44.5 9.91016H47.8005C48.0655 9.91016 48.2844 10.1168 48.2997 10.3813L48.343 11.1313C48.372 11.6324 49.1177 11.8287 49.4661 11.4674C49.8499 11.0694 50.2837 10.7269 50.7676 10.4399C51.7474 9.85889 52.8696 9.56836 54.1343 9.56836C54.4989 9.56836 54.8634 9.59684 55.228 9.65381C55.4638 9.68238 55.7017 9.72215 55.9419 9.77312C56.1894 9.82562 56.3467 10.0645 56.3118 10.315L55.8375 13.7143C55.7954 14.0156 55.4964 14.2085 55.1994 14.1427C54.6511 14.0212 54.1252 13.9604 53.6216 13.9604C52.6759 13.9604 51.8442 14.1769 51.1265 14.6099C50.4201 15.0314 49.8732 15.6239 49.4858 16.3872C49.0985 17.1392 48.9048 18.0221 48.9048 19.0361V26.5Z" fill="white"/>
<path d="M71.2172 26.162C71.2532 26.3924 71.1257 26.6181 70.9066 26.6979C69.7277 27.1272 68.5814 27.3418 67.4678 27.3418C66.1917 27.3418 65.0638 27.0741 64.084 26.5386C63.1156 25.9917 62.3579 25.234 61.811 24.2656C61.2642 23.2858 60.9907 22.1579 60.9907 20.8818V14.7852C60.9907 14.509 60.7669 14.2852 60.4907 14.2852H58.5C58.2239 14.2852 58 14.0613 58 13.7852V10.4102C58 10.134 58.2239 9.91016 58.5 9.91016H60.7471C61.0232 9.91016 61.2471 9.6863 61.2471 9.41016V6.1377C61.2471 5.86155 61.4709 5.6377 61.7471 5.6377H65.3955C65.6717 5.6377 65.8955 5.86155 65.8955 6.1377V9.41016C65.8955 9.6863 66.1194 9.91016 66.3955 9.91016H70.1294C70.4055 9.91016 70.6294 10.134 70.6294 10.4102V13.7852C70.6294 14.0613 70.4055 14.2852 70.1294 14.2852H66.3955C66.1194 14.2852 65.8955 14.509 65.8955 14.7852V19.9932C65.8955 20.9274 66.1519 21.6566 66.6646 22.1807C67.1772 22.6934 67.8153 22.9497 68.5786 22.9497C69.0369 22.9497 69.4877 22.8556 69.9311 22.6674C70.2654 22.5254 70.676 22.7069 70.7322 23.0658L71.2172 26.162Z" fill="white"/>
<path d="M78.7778 26.5C78.7778 26.7761 78.554 27 78.2778 27H74.373C74.0969 27 73.873 26.7761 73.873 26.5V10.4102C73.873 10.134 74.0969 9.91016 74.373 9.91016H78.2778C78.554 9.91016 78.7778 10.134 78.7778 10.4102V26.5Z" fill="white"/>
<path d="M88.5625 26.5C88.5625 26.7761 88.3386 27 88.0625 27H84.1577C83.8816 27 83.6577 26.7761 83.6577 26.5V14.7852C83.6577 14.509 83.4339 14.2852 83.1577 14.2852H81.167C80.8908 14.2852 80.667 14.0613 80.667 13.7852V10.4102C80.667 10.134 80.8908 9.91016 81.167 9.91016H83.1577C83.4339 9.91016 83.6577 9.6863 83.6577 9.41016V7.24414C83.6577 6.01367 83.9482 4.91992 84.5293 3.96289C85.1104 2.99447 85.9079 2.23682 86.9219 1.68994C87.9473 1.13167 89.1094 0.852539 90.4082 0.852539C91.2285 0.852539 92.0659 0.972168 92.9204 1.21143C93.6393 1.40312 94.3501 1.69158 95.0528 2.0768C95.2801 2.20138 95.3624 2.48376 95.2486 2.71658L93.8632 5.55102C93.7219 5.84006 93.3487 5.91961 93.0702 5.75854C92.8617 5.63797 92.6466 5.54073 92.4248 5.4668C92.026 5.31868 91.6273 5.24463 91.2285 5.24463C90.4766 5.24463 89.8442 5.50667 89.3315 6.03076C88.8188 6.55485 88.5625 7.27832 88.5625 8.20117V9.41016C88.5625 9.6863 88.7864 9.91016 89.0625 9.91016H93.1724C93.4485 9.91016 93.6724 10.134 93.6724 10.4102V13.7852C93.6724 14.0613 93.4485 14.2852 93.1724 14.2852H89.0625C88.7864 14.2852 88.5625 14.509 88.5625 14.7852V26.5Z" fill="white"/>
<path d="M105.888 35.2362C105.811 35.4231 105.628 35.5449 105.426 35.5449H101.28C100.923 35.5449 100.681 35.1825 100.818 34.8532L103.997 27.1951C104.053 27.0604 104.048 26.908 103.982 26.7778L95.8219 10.6357C95.6537 10.3032 95.8954 9.91016 96.2681 9.91016H100.675C100.869 9.91016 101.045 10.0218 101.127 10.1968L105.927 20.3723C106.113 20.7649 106.676 20.7513 106.842 20.3502L111.033 10.219C111.11 10.0321 111.293 9.91016 111.495 9.91016H115.625C115.981 9.91016 116.223 10.2722 116.087 10.6014L105.888 35.2362Z" fill="white"/>
</svg>
