<svg width="56" height="16" viewBox="0 0 56 16" fill="none" xmlns="http://www.w3.org/2000/svg">
<g filter="url(#filter0_b_47_80)">
<rect x="11" y="6" width="5" height="5" rx="1" transform="rotate(180 11 6)" fill="#6E66C8" style="mix-blend-mode:plus-darker"/>
</g>
<g filter="url(#filter1_b_47_80)">
<rect x="11" y="12" width="5" height="5" rx="1" transform="rotate(180 11 12)" fill="#22C2A3"/>
</g>
<g filter="url(#filter2_b_47_80)">
<rect x="5" y="12" width="5" height="5" rx="1" transform="rotate(180 5 12)" fill="#E26AC1"/>
</g>
<path d="M13 6.49698C13 5.4324 13.2318 4.47741 13.6953 3.63201C14.1588 2.77617 14.7886 2.1082 15.5846 1.62809C16.3907 1.14799 17.2825 0.907938 18.2599 0.907938C19.4086 0.907938 20.4112 1.19496 21.2677 1.76899C21.9939 2.2557 22.5535 2.91497 22.9465 3.74681C23.0508 3.96751 22.882 4.21126 22.6379 4.21126H21.7219C21.5836 4.21126 21.4595 4.12909 21.3964 4.00597C21.1104 3.44744 20.7199 3.00967 20.2248 2.69267C19.6807 2.33781 19.0257 2.16038 18.2599 2.16038C17.5243 2.16038 16.8643 2.33781 16.2799 2.69267C15.6955 3.04753 15.237 3.55373 14.9044 4.21126C14.5719 4.85836 14.4057 5.62027 14.4057 6.49698C14.4057 7.36325 14.5719 8.12516 14.9044 8.78269C15.237 9.42979 15.6955 9.93077 16.2799 10.2856C16.8643 10.6405 17.5243 10.8179 18.2599 10.8179C19.0257 10.8179 19.6807 10.6457 20.2248 10.3013C20.7199 9.98429 21.1104 9.54652 21.3964 8.98799C21.4595 8.86487 21.5836 8.78269 21.7219 8.78269H22.6362C22.8807 8.78269 23.0495 9.02732 22.944 9.24798C22.5511 10.0699 21.9924 10.7236 21.2677 11.2093C20.4112 11.7729 19.4086 12.0547 18.2599 12.0547C17.2825 12.0547 16.3907 11.8199 15.5846 11.3502C14.7886 10.8701 14.1588 10.2074 13.6953 9.36195C13.2318 8.51655 13 7.56156 13 6.49698Z" fill="black"/>
<path d="M31.5 7.34238C31.5 7.51764 31.4937 7.69944 31.4811 7.88776C31.4691 8.06719 31.3177 8.20344 31.1379 8.20344H25.2059C25.0044 8.20344 24.8427 8.37364 24.8726 8.57289C24.9734 9.24428 25.2378 9.78388 25.6657 10.1917C26.1796 10.6614 26.7993 10.8962 27.5248 10.8962C28.1194 10.8962 28.6131 10.7553 29.0061 10.4735C29.3413 10.2304 29.5929 9.92235 29.7609 9.5493C29.8226 9.41219 29.9538 9.31498 30.1042 9.31498H30.8772C31.1075 9.31498 31.2754 9.53417 31.1913 9.74851C30.944 10.3786 30.5481 10.9073 30.0036 11.3346C29.3386 11.846 28.5123 12.1017 27.5248 12.1017C26.7389 12.1017 26.0335 11.919 25.4088 11.5537C24.7941 11.1884 24.3105 10.6718 23.9578 10.0038C23.6051 9.32542 23.4288 8.54264 23.4288 7.65549C23.4288 6.76834 23.6001 5.99078 23.9427 5.32281C24.2853 4.65484 24.7639 4.14342 25.3786 3.78856C26.0033 3.42327 26.7187 3.24062 27.5248 3.24062C28.3108 3.24062 29.0061 3.41805 29.6107 3.77291C30.2153 4.12777 30.6788 4.61831 31.0012 5.24453C31.3337 5.86032 31.5 6.5596 31.5 7.34238ZM29.7292 7.04492C29.9225 7.04492 30.0816 6.88779 30.0621 6.69547C30.0221 6.30009 29.912 5.95213 29.7316 5.65158C29.4998 5.25497 29.1824 4.95751 28.7794 4.75921C28.3864 4.55047 27.9481 4.4461 27.4644 4.4461C26.7691 4.4461 26.1746 4.67571 25.6808 5.13494C25.2748 5.52047 25.0143 6.03104 24.8995 6.66665C24.863 6.8686 25.026 7.04492 25.2312 7.04492H29.7292Z" fill="black"/>
<path d="M33.3247 3.64491C33.3247 3.92366 33.7948 4.06493 34.0064 3.88347C34.114 3.7912 34.2294 3.70738 34.3525 3.63201C34.7216 3.41113 35.1541 3.38387 35.65 3.38137C35.8433 3.38039 36 3.53822 36 3.73152V4.20569C36 4.39899 35.8433 4.55569 35.65 4.55569H35.3985C33.8568 4.55569 33.3247 5.56286 33.3247 7.29541V11.6108C33.3247 11.8041 33.168 11.9608 32.9747 11.9608H32.2993C32.106 11.9608 31.9493 11.8041 31.9493 11.6108V3.73152C31.9493 3.53822 32.106 3.38152 32.2993 3.38152H33.0613C33.2068 3.38152 33.3247 3.49944 33.3247 3.64491V3.64491Z" fill="black"/>
<path d="M39.1886 4.55569C38.9953 4.55569 38.8386 4.71239 38.8386 4.90569V9.61244C38.8386 10.0299 38.9243 10.3274 39.0956 10.5048C39.2669 10.6718 39.5641 10.7553 39.9873 10.7553H40.65C40.8433 10.7553 41 10.912 41 11.1053V11.6108C41 11.8041 40.8433 11.9608 40.65 11.9608H39.7606C38.9948 11.9608 38.4204 11.7781 38.0375 11.4128C37.6546 11.0475 37.4632 10.4474 37.4632 9.61244V4.90569C37.4632 4.71239 37.3065 4.55569 37.1132 4.55569H36.74C36.5467 4.55569 36.39 4.39899 36.39 4.20569V3.73152C36.39 3.53822 36.5467 3.38152 36.74 3.38152H37.1132C37.3065 3.38152 37.4632 3.22482 37.4632 3.03152V1.57105C37.4632 1.37775 37.6199 1.22105 37.8132 1.22105H38.4886C38.6819 1.22105 38.8386 1.37775 38.8386 1.57105V3.03152C38.8386 3.22482 38.9953 3.38152 39.1886 3.38152H40.65C40.8433 3.38152 41 3.53822 41 3.73152V4.20569C41 4.39899 40.8433 4.55569 40.65 4.55569H39.1886Z" fill="black"/>
<path d="M42.0931 1.98817C41.8311 1.98817 41.6095 1.89424 41.4281 1.70637C41.2467 1.5185 41.156 1.28889 41.156 1.01753C41.156 0.746163 41.2467 0.516548 41.4281 0.328681C41.6095 0.140814 41.8311 0.0468807 42.0931 0.0468807C42.345 0.0468807 42.5566 0.140814 42.7279 0.328681C42.9093 0.516548 43 0.746163 43 1.01753C43 1.28889 42.9093 1.5185 42.7279 1.70637C42.5566 1.89424 42.345 1.98817 42.0931 1.98817ZM42.4082 3.38152C42.6015 3.38152 42.7582 3.53822 42.7582 3.73152V11.6108C42.7582 11.8041 42.6015 11.9608 42.4082 11.9608H41.7327C41.5394 11.9608 41.3827 11.8041 41.3827 11.6108V3.73152C41.3827 3.53822 41.5394 3.38152 41.7327 3.38152H42.4082Z" fill="black"/>
<path d="M47.2797 4.20577C47.2797 4.39907 47.123 4.55577 46.9297 4.55577H45.8915C45.6982 4.55577 45.5415 4.71247 45.5415 4.90577V11.6109C45.5415 11.8042 45.3848 11.9609 45.1915 11.9609H44.5161C44.3228 11.9609 44.1661 11.8042 44.1661 11.6109V4.90577C44.1661 4.71247 44.0094 4.55577 43.8161 4.55577H43.443C43.2497 4.55577 43.093 4.39907 43.093 4.20577V3.7316C43.093 3.53831 43.2497 3.3816 43.443 3.3816H43.8161C44.0094 3.3816 44.1661 3.2249 44.1661 3.0316V2.77104C44.1661 1.81083 44.4029 1.11155 44.8765 0.67319C45.3051 0.275468 45.9593 0.0539768 46.839 0.00871751C47.032 -0.00121428 47.189 0.1567 47.189 0.35V0.839824C47.189 1.03312 47.0318 1.18705 46.8394 1.20562C46.4163 1.24645 46.1046 1.36643 45.9043 1.56556C45.6625 1.80561 45.5415 2.20744 45.5415 2.77104V3.0316C45.5415 3.2249 45.6982 3.3816 45.8915 3.3816H46.9297C47.123 3.3816 47.2797 3.53831 47.2797 3.7316V4.20577Z" fill="black"/>
<path d="M55.2615 3.38152C55.5085 3.38152 55.6778 3.63047 55.587 3.86018L50.8759 15.7786C50.8231 15.9122 50.694 15.9999 50.5504 15.9999H49.8822C49.6352 15.9999 49.4659 15.751 49.5566 15.5213L50.9493 11.9952C50.9819 11.9127 50.9819 11.8209 50.9494 11.7384L47.8479 3.85972C47.7575 3.63008 47.9268 3.38152 48.1736 3.38152H48.9435C49.0895 3.38152 49.2201 3.47216 49.2713 3.60891L51.4562 9.45094C51.5698 9.75475 51.9999 9.75393 52.1123 9.44969L54.2709 3.61017C54.3217 3.47276 54.4527 3.38152 54.5992 3.38152H55.2615Z" fill="black"/>
<defs>
<filter id="filter0_b_47_80" x="-40.2" y="-45.2" width="97.4" height="97.4" filterUnits="userSpaceOnUse" color-interpolation-filters="sRGB">
<feFlood flood-opacity="0" result="BackgroundImageFix"/>
<feGaussianBlur in="BackgroundImageFix" stdDeviation="23.1"/>
<feComposite in2="SourceAlpha" operator="in" result="effect1_backgroundBlur_47_80"/>
<feBlend mode="normal" in="SourceGraphic" in2="effect1_backgroundBlur_47_80" result="shape"/>
</filter>
<filter id="filter1_b_47_80" x="-40.2" y="-39.2" width="97.4" height="97.4" filterUnits="userSpaceOnUse" color-interpolation-filters="sRGB">
<feFlood flood-opacity="0" result="BackgroundImageFix"/>
<feGaussianBlur in="BackgroundImageFix" stdDeviation="23.1"/>
<feComposite in2="SourceAlpha" operator="in" result="effect1_backgroundBlur_47_80"/>
<feBlend mode="normal" in="SourceGraphic" in2="effect1_backgroundBlur_47_80" result="shape"/>
</filter>
<filter id="filter2_b_47_80" x="-46.2" y="-39.2" width="97.4" height="97.4" filterUnits="userSpaceOnUse" color-interpolation-filters="sRGB">
<feFlood flood-opacity="0" result="BackgroundImageFix"/>
<feGaussianBlur in="BackgroundImageFix" stdDeviation="23.1"/>
<feComposite in2="SourceAlpha" operator="in" result="effect1_backgroundBlur_47_80"/>
<feBlend mode="normal" in="SourceGraphic" in2="effect1_backgroundBlur_47_80" result="shape"/>
</filter>
</defs>
</svg>
