<svg width="57" height="18" viewBox="0 0 57 18" fill="none" xmlns="http://www.w3.org/2000/svg">
<g filter="url(#filter0_b_47_80)">
<rect x="11" y="7" width="5" height="5" rx="1" transform="rotate(180 11 7)" fill="#6E66C8" style="mix-blend-mode:plus-darker"/>
</g>
<g filter="url(#filter1_b_47_80)">
<rect x="11" y="13" width="5" height="5" rx="1" transform="rotate(180 11 13)" fill="#22C2A3"/>
</g>
<g filter="url(#filter2_b_47_80)">
<rect x="5" y="13" width="5" height="5" rx="1" transform="rotate(180 5 13)" fill="#E26AC1"/>
</g>
<mask id="path-4-outside-1_47_80" maskUnits="userSpaceOnUse" x="12" y="0" width="45" height="18" fill="black">
<rect fill="white" x="12" width="45" height="18"/>
<path d="M13 7.497C13 6.43243 13.2318 5.47743 13.6953 4.63203C14.1588 3.7762 14.7886 3.10822 15.5846 2.62812C16.3907 2.14802 17.2825 1.90796 18.2599 1.90796C19.4086 1.90796 20.4112 2.19498 21.2677 2.76902C21.9558 3.23021 22.4944 3.84634 22.8833 4.61741C23.0246 4.89761 22.8078 5.21129 22.4939 5.21129H21.7869C21.6091 5.21129 21.45 5.10533 21.3663 4.9484C21.0833 4.41728 20.7027 3.99872 20.2248 3.6927C19.6807 3.33784 19.0257 3.16041 18.2599 3.16041C17.5243 3.16041 16.8643 3.33784 16.2799 3.6927C15.6955 4.04756 15.237 4.55376 14.9044 5.21129C14.5719 5.85839 14.4057 6.62029 14.4057 7.497C14.4057 8.36328 14.5719 9.12518 14.9044 9.78272C15.237 10.4298 15.6955 10.9308 16.2799 11.2857C16.8643 11.6405 17.5243 11.8179 18.2599 11.8179C19.0257 11.8179 19.6807 11.6457 20.2248 11.3013C20.7027 10.9953 21.0833 10.5767 21.3663 10.0456C21.45 9.88868 21.6091 9.78272 21.7869 9.78272H22.4917C22.8061 9.78272 23.0229 10.0975 22.88 10.3776C22.4913 11.1389 21.9539 11.7495 21.2677 12.2093C20.4112 12.7729 19.4086 13.0547 18.2599 13.0547C17.2825 13.0547 16.3907 12.8199 15.5846 12.3502C14.7886 11.8701 14.1588 11.2074 13.6953 10.362C13.2318 9.51657 13 8.56158 13 7.497Z"/>
<path d="M31.5 8.34241C31.5 8.48949 31.4956 8.64117 31.4867 8.79745C31.4736 9.02828 31.2786 9.20346 31.0474 9.20346H25.312C25.053 9.20346 24.8441 9.42267 24.8898 9.67766C25.0016 10.3006 25.2603 10.8053 25.6657 11.1917C26.1796 11.6614 26.7993 11.8962 27.5248 11.8962C28.1194 11.8962 28.6131 11.7553 29.0061 11.4735C29.3216 11.2447 29.5631 10.9584 29.7304 10.6144C29.815 10.4406 29.9828 10.315 30.1761 10.315H30.7468C31.0428 10.315 31.259 10.5974 31.1416 10.8691C30.8923 11.4464 30.513 11.9349 30.0036 12.3346C29.3386 12.846 28.5123 13.1017 27.5248 13.1017C26.7389 13.1017 26.0335 12.9191 25.4088 12.5538C24.7941 12.1885 24.3105 11.6718 23.9578 11.0039C23.6051 10.3254 23.4288 9.54267 23.4288 8.65552C23.4288 7.76837 23.6001 6.99081 23.9427 6.32284C24.2853 5.65486 24.7639 5.14345 25.3786 4.78859C26.0033 4.42329 26.7187 4.24064 27.5248 4.24064C28.3108 4.24064 29.0061 4.41807 29.6107 4.77293C30.2153 5.12779 30.6788 5.61834 31.0012 6.24456C31.3337 6.86034 31.5 7.55963 31.5 8.34241ZM29.6292 8.04495C29.8777 8.04495 30.0835 7.8425 30.0505 7.59617C30.003 7.24158 29.8967 6.92673 29.7316 6.6516C29.4998 6.255 29.1824 5.95754 28.7794 5.75924C28.3864 5.55049 27.9481 5.44612 27.4644 5.44612C26.7691 5.44612 26.1746 5.67574 25.6808 6.13497C25.2979 6.49861 25.0444 6.9735 24.9204 7.55964C24.8659 7.81778 25.0764 8.04495 25.3402 8.04495H29.6292Z"/>
<path d="M33.8247 4.64494C33.8247 4.92368 34.2948 5.06496 34.5064 4.8835C34.614 4.79122 34.7294 4.7074 34.8525 4.63203C35.1965 4.42614 35.5957 4.38848 36.0499 4.3823C36.2985 4.37891 36.5 4.58302 36.5 4.83154V5.10571C36.5 5.35424 36.2985 5.55571 36.05 5.55571H35.8985C34.3568 5.55571 33.8247 6.56289 33.8247 8.29544V12.5108C33.8247 12.7593 33.6232 12.9608 33.3747 12.9608H32.8993C32.6507 12.9608 32.4493 12.7593 32.4493 12.5108V4.83154C32.4493 4.58302 32.6507 4.38154 32.8993 4.38154H33.5613C33.7068 4.38154 33.8247 4.49947 33.8247 4.64494V4.64494Z"/>
<path d="M39.8986 5.55571C39.65 5.55571 39.4486 5.75719 39.4486 6.00571V10.6125C39.4486 11.0299 39.5342 11.3274 39.7055 11.5048C39.8768 11.6718 40.1741 11.7553 40.5973 11.7553H41.16C41.4085 11.7553 41.61 11.9568 41.61 12.2053V12.5108C41.61 12.7593 41.4085 12.9608 41.16 12.9608H40.3706C39.6048 12.9608 39.0304 12.7782 38.6475 12.4129C38.2646 12.0476 38.0731 11.4474 38.0731 10.6125V6.00571C38.0731 5.75719 37.8717 5.55571 37.6231 5.55571H37.45C37.2015 5.55571 37 5.35424 37 5.10571V4.83154C37 4.58302 37.2015 4.38154 37.45 4.38154H37.6231C37.8717 4.38154 38.0731 4.18007 38.0731 3.93154V2.67107C38.0731 2.42255 38.2746 2.22107 38.5231 2.22107H38.9986C39.2471 2.22107 39.4486 2.42255 39.4486 2.67107V3.93154C39.4486 4.18007 39.65 4.38154 39.8986 4.38154H41.16C41.4085 4.38154 41.61 4.58302 41.61 4.83154V5.10571C41.61 5.35424 41.4085 5.55571 41.16 5.55571H39.8986Z"/>
<path d="M42.9371 2.9882C42.6751 2.9882 42.4534 2.89426 42.2721 2.7064C42.0907 2.51853 42 2.28892 42 2.01755C42 1.74619 42.0907 1.51657 42.2721 1.32871C42.4534 1.14084 42.6751 1.04691 42.9371 1.04691C43.189 1.04691 43.4006 1.14084 43.5719 1.32871C43.7533 1.51657 43.844 1.74619 43.844 2.01755C43.844 2.28892 43.7533 2.51853 43.5719 2.7064C43.4006 2.89426 43.189 2.9882 42.9371 2.9882ZM43.1522 4.38154C43.4007 4.38154 43.6022 4.58302 43.6022 4.83154V12.5108C43.6022 12.7593 43.4007 12.9608 43.1522 12.9608H42.6767C42.4282 12.9608 42.2267 12.7593 42.2267 12.5108V4.83154C42.2267 4.58302 42.4282 4.38154 42.6767 4.38154H43.1522Z"/>
<path d="M48.3529 5.10577C48.3529 5.3543 48.1514 5.55577 47.9029 5.55577H47.0647C46.8162 5.55577 46.6147 5.75725 46.6147 6.00577V12.5109C46.6147 12.7594 46.4132 12.9609 46.1647 12.9609H45.6893C45.4407 12.9609 45.2393 12.7594 45.2393 12.5109V6.00577C45.2393 5.75725 45.0378 5.55577 44.7893 5.55577H44.6161C44.3676 5.55577 44.1661 5.3543 44.1661 5.10577V4.8316C44.1661 4.58308 44.3676 4.3816 44.6161 4.3816H44.7893C45.0378 4.3816 45.2393 4.18013 45.2393 3.9316V3.77104C45.2393 2.81083 45.476 2.11155 45.9496 1.67319C46.3619 1.29066 46.9828 1.07115 47.8123 1.01467C48.0603 0.997792 48.2622 1.20147 48.2622 1.45V1.73982C48.2622 1.98835 48.0596 2.18442 47.8132 2.21693C47.4403 2.26614 47.1617 2.38235 46.9774 2.56556C46.7356 2.80561 46.6147 3.20744 46.6147 3.77104V3.9316C46.6147 4.18013 46.8162 4.3816 47.0647 4.3816H47.9029C48.1514 4.3816 48.3529 4.58308 48.3529 4.8316V5.10577Z"/>
<path d="M56.1145 4.38154C56.4321 4.38154 56.6497 4.70163 56.533 4.99697L51.9009 16.7154C51.833 16.8871 51.6671 16.9999 51.4824 16.9999H51.0292C50.7116 16.9999 50.494 16.68 50.6106 16.3846L51.9348 13.0319C51.9767 12.9259 51.9768 12.8079 51.935 12.7018L48.9017 4.99638C48.7855 4.70113 49.0031 4.38154 49.3204 4.38154H49.8741C50.0618 4.38154 50.2298 4.49808 50.2956 4.67391L52.362 10.1991C52.5081 10.5897 53.061 10.5886 53.2056 10.1975L55.2468 4.67552C55.3121 4.49885 55.4805 4.38154 55.6689 4.38154H56.1145Z"/>
</mask>
<path d="M13 7.497C13 6.43243 13.2318 5.47743 13.6953 4.63203C14.1588 3.7762 14.7886 3.10822 15.5846 2.62812C16.3907 2.14802 17.2825 1.90796 18.2599 1.90796C19.4086 1.90796 20.4112 2.19498 21.2677 2.76902C21.9558 3.23021 22.4944 3.84634 22.8833 4.61741C23.0246 4.89761 22.8078 5.21129 22.4939 5.21129H21.7869C21.6091 5.21129 21.45 5.10533 21.3663 4.9484C21.0833 4.41728 20.7027 3.99872 20.2248 3.6927C19.6807 3.33784 19.0257 3.16041 18.2599 3.16041C17.5243 3.16041 16.8643 3.33784 16.2799 3.6927C15.6955 4.04756 15.237 4.55376 14.9044 5.21129C14.5719 5.85839 14.4057 6.62029 14.4057 7.497C14.4057 8.36328 14.5719 9.12518 14.9044 9.78272C15.237 10.4298 15.6955 10.9308 16.2799 11.2857C16.8643 11.6405 17.5243 11.8179 18.2599 11.8179C19.0257 11.8179 19.6807 11.6457 20.2248 11.3013C20.7027 10.9953 21.0833 10.5767 21.3663 10.0456C21.45 9.88868 21.6091 9.78272 21.7869 9.78272H22.4917C22.8061 9.78272 23.0229 10.0975 22.88 10.3776C22.4913 11.1389 21.9539 11.7495 21.2677 12.2093C20.4112 12.7729 19.4086 13.0547 18.2599 13.0547C17.2825 13.0547 16.3907 12.8199 15.5846 12.3502C14.7886 11.8701 14.1588 11.2074 13.6953 10.362C13.2318 9.51657 13 8.56158 13 7.497Z" fill="#616161"/>
<path d="M31.5 8.34241C31.5 8.48949 31.4956 8.64117 31.4867 8.79745C31.4736 9.02828 31.2786 9.20346 31.0474 9.20346H25.312C25.053 9.20346 24.8441 9.42267 24.8898 9.67766C25.0016 10.3006 25.2603 10.8053 25.6657 11.1917C26.1796 11.6614 26.7993 11.8962 27.5248 11.8962C28.1194 11.8962 28.6131 11.7553 29.0061 11.4735C29.3216 11.2447 29.5631 10.9584 29.7304 10.6144C29.815 10.4406 29.9828 10.315 30.1761 10.315H30.7468C31.0428 10.315 31.259 10.5974 31.1416 10.8691C30.8923 11.4464 30.513 11.9349 30.0036 12.3346C29.3386 12.846 28.5123 13.1017 27.5248 13.1017C26.7389 13.1017 26.0335 12.9191 25.4088 12.5538C24.7941 12.1885 24.3105 11.6718 23.9578 11.0039C23.6051 10.3254 23.4288 9.54267 23.4288 8.65552C23.4288 7.76837 23.6001 6.99081 23.9427 6.32284C24.2853 5.65486 24.7639 5.14345 25.3786 4.78859C26.0033 4.42329 26.7187 4.24064 27.5248 4.24064C28.3108 4.24064 29.0061 4.41807 29.6107 4.77293C30.2153 5.12779 30.6788 5.61834 31.0012 6.24456C31.3337 6.86034 31.5 7.55963 31.5 8.34241ZM29.6292 8.04495C29.8777 8.04495 30.0835 7.8425 30.0505 7.59617C30.003 7.24158 29.8967 6.92673 29.7316 6.6516C29.4998 6.255 29.1824 5.95754 28.7794 5.75924C28.3864 5.55049 27.9481 5.44612 27.4644 5.44612C26.7691 5.44612 26.1746 5.67574 25.6808 6.13497C25.2979 6.49861 25.0444 6.9735 24.9204 7.55964C24.8659 7.81778 25.0764 8.04495 25.3402 8.04495H29.6292Z" fill="#616161"/>
<path d="M33.8247 4.64494C33.8247 4.92368 34.2948 5.06496 34.5064 4.8835C34.614 4.79122 34.7294 4.7074 34.8525 4.63203C35.1965 4.42614 35.5957 4.38848 36.0499 4.3823C36.2985 4.37891 36.5 4.58302 36.5 4.83154V5.10571C36.5 5.35424 36.2985 5.55571 36.05 5.55571H35.8985C34.3568 5.55571 33.8247 6.56289 33.8247 8.29544V12.5108C33.8247 12.7593 33.6232 12.9608 33.3747 12.9608H32.8993C32.6507 12.9608 32.4493 12.7593 32.4493 12.5108V4.83154C32.4493 4.58302 32.6507 4.38154 32.8993 4.38154H33.5613C33.7068 4.38154 33.8247 4.49947 33.8247 4.64494V4.64494Z" fill="#616161"/>
<path d="M39.8986 5.55571C39.65 5.55571 39.4486 5.75719 39.4486 6.00571V10.6125C39.4486 11.0299 39.5342 11.3274 39.7055 11.5048C39.8768 11.6718 40.1741 11.7553 40.5973 11.7553H41.16C41.4085 11.7553 41.61 11.9568 41.61 12.2053V12.5108C41.61 12.7593 41.4085 12.9608 41.16 12.9608H40.3706C39.6048 12.9608 39.0304 12.7782 38.6475 12.4129C38.2646 12.0476 38.0731 11.4474 38.0731 10.6125V6.00571C38.0731 5.75719 37.8717 5.55571 37.6231 5.55571H37.45C37.2015 5.55571 37 5.35424 37 5.10571V4.83154C37 4.58302 37.2015 4.38154 37.45 4.38154H37.6231C37.8717 4.38154 38.0731 4.18007 38.0731 3.93154V2.67107C38.0731 2.42255 38.2746 2.22107 38.5231 2.22107H38.9986C39.2471 2.22107 39.4486 2.42255 39.4486 2.67107V3.93154C39.4486 4.18007 39.65 4.38154 39.8986 4.38154H41.16C41.4085 4.38154 41.61 4.58302 41.61 4.83154V5.10571C41.61 5.35424 41.4085 5.55571 41.16 5.55571H39.8986Z" fill="#616161"/>
<path d="M42.9371 2.9882C42.6751 2.9882 42.4534 2.89426 42.2721 2.7064C42.0907 2.51853 42 2.28892 42 2.01755C42 1.74619 42.0907 1.51657 42.2721 1.32871C42.4534 1.14084 42.6751 1.04691 42.9371 1.04691C43.189 1.04691 43.4006 1.14084 43.5719 1.32871C43.7533 1.51657 43.844 1.74619 43.844 2.01755C43.844 2.28892 43.7533 2.51853 43.5719 2.7064C43.4006 2.89426 43.189 2.9882 42.9371 2.9882ZM43.1522 4.38154C43.4007 4.38154 43.6022 4.58302 43.6022 4.83154V12.5108C43.6022 12.7593 43.4007 12.9608 43.1522 12.9608H42.6767C42.4282 12.9608 42.2267 12.7593 42.2267 12.5108V4.83154C42.2267 4.58302 42.4282 4.38154 42.6767 4.38154H43.1522Z" fill="#616161"/>
<path d="M48.3529 5.10577C48.3529 5.3543 48.1514 5.55577 47.9029 5.55577H47.0647C46.8162 5.55577 46.6147 5.75725 46.6147 6.00577V12.5109C46.6147 12.7594 46.4132 12.9609 46.1647 12.9609H45.6893C45.4407 12.9609 45.2393 12.7594 45.2393 12.5109V6.00577C45.2393 5.75725 45.0378 5.55577 44.7893 5.55577H44.6161C44.3676 5.55577 44.1661 5.3543 44.1661 5.10577V4.8316C44.1661 4.58308 44.3676 4.3816 44.6161 4.3816H44.7893C45.0378 4.3816 45.2393 4.18013 45.2393 3.9316V3.77104C45.2393 2.81083 45.476 2.11155 45.9496 1.67319C46.3619 1.29066 46.9828 1.07115 47.8123 1.01467C48.0603 0.997792 48.2622 1.20147 48.2622 1.45V1.73982C48.2622 1.98835 48.0596 2.18442 47.8132 2.21693C47.4403 2.26614 47.1617 2.38235 46.9774 2.56556C46.7356 2.80561 46.6147 3.20744 46.6147 3.77104V3.9316C46.6147 4.18013 46.8162 4.3816 47.0647 4.3816H47.9029C48.1514 4.3816 48.3529 4.58308 48.3529 4.8316V5.10577Z" fill="#616161"/>
<path d="M56.1145 4.38154C56.4321 4.38154 56.6497 4.70163 56.533 4.99697L51.9009 16.7154C51.833 16.8871 51.6671 16.9999 51.4824 16.9999H51.0292C50.7116 16.9999 50.494 16.68 50.6106 16.3846L51.9348 13.0319C51.9767 12.9259 51.9768 12.8079 51.935 12.7018L48.9017 4.99638C48.7855 4.70113 49.0031 4.38154 49.3204 4.38154H49.8741C50.0618 4.38154 50.2298 4.49808 50.2956 4.67391L52.362 10.1991C52.5081 10.5897 53.061 10.5886 53.2056 10.1975L55.2468 4.67552C55.3121 4.49885 55.4805 4.38154 55.6689 4.38154H56.1145Z" fill="#616161"/>
<path d="M13 7.497C13 6.43243 13.2318 5.47743 13.6953 4.63203C14.1588 3.7762 14.7886 3.10822 15.5846 2.62812C16.3907 2.14802 17.2825 1.90796 18.2599 1.90796C19.4086 1.90796 20.4112 2.19498 21.2677 2.76902C21.9558 3.23021 22.4944 3.84634 22.8833 4.61741C23.0246 4.89761 22.8078 5.21129 22.4939 5.21129H21.7869C21.6091 5.21129 21.45 5.10533 21.3663 4.9484C21.0833 4.41728 20.7027 3.99872 20.2248 3.6927C19.6807 3.33784 19.0257 3.16041 18.2599 3.16041C17.5243 3.16041 16.8643 3.33784 16.2799 3.6927C15.6955 4.04756 15.237 4.55376 14.9044 5.21129C14.5719 5.85839 14.4057 6.62029 14.4057 7.497C14.4057 8.36328 14.5719 9.12518 14.9044 9.78272C15.237 10.4298 15.6955 10.9308 16.2799 11.2857C16.8643 11.6405 17.5243 11.8179 18.2599 11.8179C19.0257 11.8179 19.6807 11.6457 20.2248 11.3013C20.7027 10.9953 21.0833 10.5767 21.3663 10.0456C21.45 9.88868 21.6091 9.78272 21.7869 9.78272H22.4917C22.8061 9.78272 23.0229 10.0975 22.88 10.3776C22.4913 11.1389 21.9539 11.7495 21.2677 12.2093C20.4112 12.7729 19.4086 13.0547 18.2599 13.0547C17.2825 13.0547 16.3907 12.8199 15.5846 12.3502C14.7886 11.8701 14.1588 11.2074 13.6953 10.362C13.2318 9.51657 13 8.56158 13 7.497Z" stroke="#616161" stroke-width="0.4" stroke-linecap="round" stroke-linejoin="round" mask="url(#path-4-outside-1_47_80)"/>
<path d="M31.5 8.34241C31.5 8.48949 31.4956 8.64117 31.4867 8.79745C31.4736 9.02828 31.2786 9.20346 31.0474 9.20346H25.312C25.053 9.20346 24.8441 9.42267 24.8898 9.67766C25.0016 10.3006 25.2603 10.8053 25.6657 11.1917C26.1796 11.6614 26.7993 11.8962 27.5248 11.8962C28.1194 11.8962 28.6131 11.7553 29.0061 11.4735C29.3216 11.2447 29.5631 10.9584 29.7304 10.6144C29.815 10.4406 29.9828 10.315 30.1761 10.315H30.7468C31.0428 10.315 31.259 10.5974 31.1416 10.8691C30.8923 11.4464 30.513 11.9349 30.0036 12.3346C29.3386 12.846 28.5123 13.1017 27.5248 13.1017C26.7389 13.1017 26.0335 12.9191 25.4088 12.5538C24.7941 12.1885 24.3105 11.6718 23.9578 11.0039C23.6051 10.3254 23.4288 9.54267 23.4288 8.65552C23.4288 7.76837 23.6001 6.99081 23.9427 6.32284C24.2853 5.65486 24.7639 5.14345 25.3786 4.78859C26.0033 4.42329 26.7187 4.24064 27.5248 4.24064C28.3108 4.24064 29.0061 4.41807 29.6107 4.77293C30.2153 5.12779 30.6788 5.61834 31.0012 6.24456C31.3337 6.86034 31.5 7.55963 31.5 8.34241ZM29.6292 8.04495C29.8777 8.04495 30.0835 7.8425 30.0505 7.59617C30.003 7.24158 29.8967 6.92673 29.7316 6.6516C29.4998 6.255 29.1824 5.95754 28.7794 5.75924C28.3864 5.55049 27.9481 5.44612 27.4644 5.44612C26.7691 5.44612 26.1746 5.67574 25.6808 6.13497C25.2979 6.49861 25.0444 6.9735 24.9204 7.55964C24.8659 7.81778 25.0764 8.04495 25.3402 8.04495H29.6292Z" stroke="#616161" stroke-width="0.4" stroke-linecap="round" stroke-linejoin="round" mask="url(#path-4-outside-1_47_80)"/>
<path d="M33.8247 4.64494C33.8247 4.92368 34.2948 5.06496 34.5064 4.8835C34.614 4.79122 34.7294 4.7074 34.8525 4.63203C35.1965 4.42614 35.5957 4.38848 36.0499 4.3823C36.2985 4.37891 36.5 4.58302 36.5 4.83154V5.10571C36.5 5.35424 36.2985 5.55571 36.05 5.55571H35.8985C34.3568 5.55571 33.8247 6.56289 33.8247 8.29544V12.5108C33.8247 12.7593 33.6232 12.9608 33.3747 12.9608H32.8993C32.6507 12.9608 32.4493 12.7593 32.4493 12.5108V4.83154C32.4493 4.58302 32.6507 4.38154 32.8993 4.38154H33.5613C33.7068 4.38154 33.8247 4.49947 33.8247 4.64494V4.64494Z" stroke="#616161" stroke-width="0.4" stroke-linecap="round" stroke-linejoin="round" mask="url(#path-4-outside-1_47_80)"/>
<path d="M39.8986 5.55571C39.65 5.55571 39.4486 5.75719 39.4486 6.00571V10.6125C39.4486 11.0299 39.5342 11.3274 39.7055 11.5048C39.8768 11.6718 40.1741 11.7553 40.5973 11.7553H41.16C41.4085 11.7553 41.61 11.9568 41.61 12.2053V12.5108C41.61 12.7593 41.4085 12.9608 41.16 12.9608H40.3706C39.6048 12.9608 39.0304 12.7782 38.6475 12.4129C38.2646 12.0476 38.0731 11.4474 38.0731 10.6125V6.00571C38.0731 5.75719 37.8717 5.55571 37.6231 5.55571H37.45C37.2015 5.55571 37 5.35424 37 5.10571V4.83154C37 4.58302 37.2015 4.38154 37.45 4.38154H37.6231C37.8717 4.38154 38.0731 4.18007 38.0731 3.93154V2.67107C38.0731 2.42255 38.2746 2.22107 38.5231 2.22107H38.9986C39.2471 2.22107 39.4486 2.42255 39.4486 2.67107V3.93154C39.4486 4.18007 39.65 4.38154 39.8986 4.38154H41.16C41.4085 4.38154 41.61 4.58302 41.61 4.83154V5.10571C41.61 5.35424 41.4085 5.55571 41.16 5.55571H39.8986Z" stroke="#616161" stroke-width="0.4" stroke-linecap="round" stroke-linejoin="round" mask="url(#path-4-outside-1_47_80)"/>
<path d="M42.9371 2.9882C42.6751 2.9882 42.4534 2.89426 42.2721 2.7064C42.0907 2.51853 42 2.28892 42 2.01755C42 1.74619 42.0907 1.51657 42.2721 1.32871C42.4534 1.14084 42.6751 1.04691 42.9371 1.04691C43.189 1.04691 43.4006 1.14084 43.5719 1.32871C43.7533 1.51657 43.844 1.74619 43.844 2.01755C43.844 2.28892 43.7533 2.51853 43.5719 2.7064C43.4006 2.89426 43.189 2.9882 42.9371 2.9882ZM43.1522 4.38154C43.4007 4.38154 43.6022 4.58302 43.6022 4.83154V12.5108C43.6022 12.7593 43.4007 12.9608 43.1522 12.9608H42.6767C42.4282 12.9608 42.2267 12.7593 42.2267 12.5108V4.83154C42.2267 4.58302 42.4282 4.38154 42.6767 4.38154H43.1522Z" stroke="#616161" stroke-width="0.4" stroke-linecap="round" stroke-linejoin="round" mask="url(#path-4-outside-1_47_80)"/>
<path d="M48.3529 5.10577C48.3529 5.3543 48.1514 5.55577 47.9029 5.55577H47.0647C46.8162 5.55577 46.6147 5.75725 46.6147 6.00577V12.5109C46.6147 12.7594 46.4132 12.9609 46.1647 12.9609H45.6893C45.4407 12.9609 45.2393 12.7594 45.2393 12.5109V6.00577C45.2393 5.75725 45.0378 5.55577 44.7893 5.55577H44.6161C44.3676 5.55577 44.1661 5.3543 44.1661 5.10577V4.8316C44.1661 4.58308 44.3676 4.3816 44.6161 4.3816H44.7893C45.0378 4.3816 45.2393 4.18013 45.2393 3.9316V3.77104C45.2393 2.81083 45.476 2.11155 45.9496 1.67319C46.3619 1.29066 46.9828 1.07115 47.8123 1.01467C48.0603 0.997792 48.2622 1.20147 48.2622 1.45V1.73982C48.2622 1.98835 48.0596 2.18442 47.8132 2.21693C47.4403 2.26614 47.1617 2.38235 46.9774 2.56556C46.7356 2.80561 46.6147 3.20744 46.6147 3.77104V3.9316C46.6147 4.18013 46.8162 4.3816 47.0647 4.3816H47.9029C48.1514 4.3816 48.3529 4.58308 48.3529 4.8316V5.10577Z" stroke="#616161" stroke-width="0.4" stroke-linecap="round" stroke-linejoin="round" mask="url(#path-4-outside-1_47_80)"/>
<path d="M56.1145 4.38154C56.4321 4.38154 56.6497 4.70163 56.533 4.99697L51.9009 16.7154C51.833 16.8871 51.6671 16.9999 51.4824 16.9999H51.0292C50.7116 16.9999 50.494 16.68 50.6106 16.3846L51.9348 13.0319C51.9767 12.9259 51.9768 12.8079 51.935 12.7018L48.9017 4.99638C48.7855 4.70113 49.0031 4.38154 49.3204 4.38154H49.8741C50.0618 4.38154 50.2298 4.49808 50.2956 4.67391L52.362 10.1991C52.5081 10.5897 53.061 10.5886 53.2056 10.1975L55.2468 4.67552C55.3121 4.49885 55.4805 4.38154 55.6689 4.38154H56.1145Z" stroke="#616161" stroke-width="0.4" stroke-linecap="round" stroke-linejoin="round" mask="url(#path-4-outside-1_47_80)"/>
<defs>
<filter id="filter0_b_47_80" x="-40.2" y="-44.2" width="97.4" height="97.4" filterUnits="userSpaceOnUse" color-interpolation-filters="sRGB">
<feFlood flood-opacity="0" result="BackgroundImageFix"/>
<feGaussianBlur in="BackgroundImageFix" stdDeviation="23.1"/>
<feComposite in2="SourceAlpha" operator="in" result="effect1_backgroundBlur_47_80"/>
<feBlend mode="normal" in="SourceGraphic" in2="effect1_backgroundBlur_47_80" result="shape"/>
</filter>
<filter id="filter1_b_47_80" x="-40.2" y="-38.2" width="97.4" height="97.4" filterUnits="userSpaceOnUse" color-interpolation-filters="sRGB">
<feFlood flood-opacity="0" result="BackgroundImageFix"/>
<feGaussianBlur in="BackgroundImageFix" stdDeviation="23.1"/>
<feComposite in2="SourceAlpha" operator="in" result="effect1_backgroundBlur_47_80"/>
<feBlend mode="normal" in="SourceGraphic" in2="effect1_backgroundBlur_47_80" result="shape"/>
</filter>
<filter id="filter2_b_47_80" x="-46.2" y="-38.2" width="97.4" height="97.4" filterUnits="userSpaceOnUse" color-interpolation-filters="sRGB">
<feFlood flood-opacity="0" result="BackgroundImageFix"/>
<feGaussianBlur in="BackgroundImageFix" stdDeviation="23.1"/>
<feComposite in2="SourceAlpha" operator="in" result="effect1_backgroundBlur_47_80"/>
<feBlend mode="normal" in="SourceGraphic" in2="effect1_backgroundBlur_47_80" result="shape"/>
</filter>
</defs>
</svg>
